0
SECTION
2
HEADER
9
$INSUNITS
70
1
9
$ACADVER
1
AC1014
9
$HANDSEED
5
FFFF
0
ENDSEC
0
SECTION
2
TABLES
0
TABLE
2
VPORT
5
8
100
AcDbSymbolTable
0
ENDTAB
0
TABLE
2
LTYPE
5
5
100
AcDbSymbolTable
0
LTYPE
5
14
100
AcDbSymbolTableRecord
100
AcDbLinetypeTableRecord
2
BYBLOCK
70
0
0
LTYPE
5
15
100
AcDbSymbolTableRecord
100
AcDbLinetypeTableRecord
2
BYLAYER
70
0
0
ENDTAB
0
TABLE
2
LAYER
5
2
100
AcDbSymbolTable
70
2
0
LAYER
5
50
100
AcDbSymbolTableRecord
100
AcDbLayerTableRecord
2
0
70
0
6
CONTINUOUS
0
ENDTAB
0
TABLE
2
STYLE
5
3
100
AcDbSymbolTable
70
1
0
STYLE
5
11
100
AcDbSymbolTableRecord
100
AcDbTextStyleTableRecord
2
STANDARD
70
0
0
ENDTAB
0
TABLE
2
VIEW
5
6
100
AcDbSymbolTable
70
0
0
ENDTAB
0
TABLE
2
UCS
5
7
100
AcDbSymbolTable
70
0
0
ENDTAB
0
TABLE
2
APPID
5
9
100
AcDbSymbolTable
70
2
0
APPID
5
12
100
AcDbSymbolTableRecord
100
AcDbRegAppTableRecord
2
ACAD
70
0
0
ENDTAB
0
TABLE
2
DIMSTYLE
5
A
100
AcDbSymbolTable
70
1
0
ENDTAB
0
TABLE
2
BLOCK_RECORD
5
1
100
AcDbSymbolTable
70
1
0
BLOCK_RECORD
5
1F
100
AcDbSymbolTableRecord
100
AcDbBlockTableRecord
2
*MODEL_SPACE
0
BLOCK_RECORD
5
1B
100
AcDbSymbolTableRecord
100
AcDbBlockTableRecord
2
*PAPER_SPACE
0
ENDTAB
0
ENDSEC
0
SECTION
2
BLOCKS
0
BLOCK
5
20
100
AcDbEntity
100
AcDbBlockBegin
2
*MODEL_SPACE
0
ENDBLK
5
21
100
AcDbEntity
100
AcDbBlockEnd
0
BLOCK
5
1C
100
AcDbEntity
100
AcDbBlockBegin
2
*PAPER_SPACE
0
ENDBLK
5
1D
100
AcDbEntity
100
AcDbBlockEnd
0
ENDSEC
0
SECTION
2
ENTITIES
0
LINE
5
100
100
AcDbEntity
8
0
100
AcDbLine
10
-10.933945142797446
20
9.3396916998856696
30
0
11
-1.4542045451209671
21
9.3396916998856696
31
0
0
LINE
5
101
100
AcDbEntity
8
0
100
AcDbLine
10
-10.933945142797446
20
9.3396916998856696
30
0
11
-1.4542045451209671
21
9.3396916998856696
31
0
0
LINE
5
102
100
AcDbEntity
8
0
100
AcDbLine
10
-1.4542045451209671
20
8.9124759388845636
30
0
11
-1.4542045451209671
21
9.3396916998856696
31
0
0
LINE
5
103
100
AcDbEntity
8
0
100
AcDbLine
10
-1.4542045451209671
20
8.9124759388845636
30
0
11
2.5500618800125343
21
8.9124759388845636
31
0
0
LINE
5
104
100
AcDbEntity
8
0
100
AcDbLine
10
2.5500618800125343
20
8.9124759388845636
30
0
11
2.5500618800125343
21
8.2669074608867508
31
0
0
LINE
5
105
100
AcDbEntity
8
0
100
AcDbLine
10
2.5500618800125343
20
8.2669074608867508
30
0
11
-1.4542045451209671
21
8.2669074608867508
31
0
0
LINE
5
106
100
AcDbEntity
8
0
100
AcDbLine
10
-1.4542045451209671
20
8.2669074608867508
30
0
11
-1.4542045451209671
21
7.8396916998856456
31
0
0
LINE
5
107
100
AcDbEntity
8
0
100
AcDbLine
10
-1.4542045451209671
20
7.8396916998856456
30
0
11
-10.933945142797446
21
7.8396916998856456
31
0
0
LINE
5
108
100
AcDbEntity
8
0
100
AcDbLine
10
-10.933945142797446
20
7.8396916998856456
30
0
11
-10.933945142797446
21
9.3396916998856696
31
0
0
LINE
5
109
100
AcDbEntity
8
0
100
AcDbLine
10
-22.73071682876645
20
6.7486441671987576
30
0
11
13.269463171233548
21
6.7486441671987381
31
0
0
LINE
5
110
100
AcDbEntity
8
0
100
AcDbLine
10
3.2781271831572352
20
7.7061954607635164
30
0
11
3.2781271831572352
21
9.2061954607635403
31
0
0
LINE
5
111
100
AcDbEntity
8
0
100
AcDbLine
10
13.237796479286835
20
7.7061954607635164
30
0
11
13.237796479286835
21
9.2061954607635403
31
0
0
LINE
5
112
100
AcDbEntity
8
0
100
AcDbLine
10
3.2781271831572352
20
9.2061954607635403
30
0
11
13.237796479286835
21
9.2061954607635403
31
0
0
LINE
5
113
100
AcDbEntity
8
0
100
AcDbLine
10
13.237796479286835
20
7.7061954607635164
30
0
11
13.237796479286835
21
9.2061954607635403
31
0
0
LINE
5
114
100
AcDbEntity
8
0
100
AcDbLine
10
3.2781271831572352
20
7.7061954607635164
30
0
11
13.237796479286835
21
7.7061954607635164
31
0
0
LINE
5
115
100
AcDbEntity
8
0
100
AcDbLine
10
-12.365516854088114
20
7.3901422686946923
30
0
11
-14.365516824051127
21
7.3901422686946701
31
0
0
LINE
5
116
100
AcDbEntity
8
0
100
AcDbLine
10
-17.100950816038914
20
7.3901422686946701
30
0
11
-15.1009508460759
21
7.3901422686946923
31
0
0
LINE
5
117
100
AcDbEntity
8
0
100
AcDbLine
10
-15.1009508460759
20
7.3901422686946923
30
0
11
-17.100950816038914
21
7.3901422686946701
31
0
0
LINE
5
118
100
AcDbEntity
8
0
100
AcDbLine
10
-17.100950816038914
20
7.3901422686946701
30
0
11
-15.1009508460759
21
7.3901422686946923
31
0
0
LINE
5
119
100
AcDbEntity
8
0
100
AcDbLine
10
-18.050897565596514
20
7.3713639928625723
30
0
11
-18.050897565596486
21
43.371543992862563
31
0
0
LWPOLYLINE
5
120
100
AcDbEntity
8
0
100
AcDbPolyline
90
2
70
1
43
0.0
10
-18.79472543304222
20
7.3240149883075514
10
-18.794725433042196
20
43.324194988307539
42
0.22238789903719319
0
LINE
5
121
100
AcDbEntity
8
0
100
AcDbLine
10
4.0063822515348333
20
9.8738287901846835
30
0
11
-10.493340579698017
21
9.8738287901846835
31
0
0
LINE
5
122
100
AcDbEntity
8
0
100
AcDbLine
10
-10.493340579698017
20
9.8738287901846835
30
0
11
4.0063822515348333
21
9.8738287901846835
31
0
0
LINE
5
123
100
AcDbEntity
8
0
100
AcDbLine
10
-17.100950816038935
20
43.390141728028887
30
0
11
-15.100950846075923
21
43.390141728028887
31
0
0
LINE
5
124
100
AcDbEntity
8
0
100
AcDbLine
10
-12.365516854088137
20
43.390141728028887
30
0
11
-14.36551682405115
21
43.390141728028887
31
0
0
LINE
5
125
100
AcDbEntity
8
0
100
AcDbLine
10
-14.36551682405115
20
43.390141728028887
30
0
11
-12.365516854088137
21
43.390141728028887
31
0
0
LINE
5
126
100
AcDbEntity
8
0
100
AcDbLine
10
-10.852597348645167
20
43.464111234691323
30
0
11
-10.852597348645167
21
41.964111234691302
31
0
0
LINE
5
127
100
AcDbEntity
8
0
100
AcDbLine
10
-10.852597348645167
20
41.964111234691302
30
0
11
19.127143249031331
21
41.964111234691302
31
0
0
LINE
5
128
100
AcDbEntity
8
0
100
AcDbLine
10
19.127143249031331
20
41.964111234691302
30
0
11
19.127143249031331
21
42.39132699569241
31
0
0
LINE
5
129
100
AcDbEntity
8
0
100
AcDbLine
10
19.127143249031331
20
42.39132699569241
30
0
11
23.131409674164807
21
42.39132699569241
31
0
0
LINE
5
130
100
AcDbEntity
8
0
100
AcDbLine
10
23.131409674164807
20
42.39132699569241
30
0
11
23.131409674164807
21
43.036895473690223
31
0
0
LINE
5
131
100
AcDbEntity
8
0
100
AcDbLine
10
23.131409674164807
20
43.036895473690223
30
0
11
19.127143249031331
21
43.036895473690223
31
0
0
LINE
5
132
100
AcDbEntity
8
0
100
AcDbLine
10
19.127143249031331
20
43.036895473690223
30
0
11
19.127143249031331
21
43.464111234691323
31
0
0
LINE
5
133
100
AcDbEntity
8
0
100
AcDbLine
10
19.127143249031331
20
43.464111234691323
30
0
11
-10.852597348645167
21
43.464111234691323
31
0
0
LINE
5
134
100
AcDbEntity
8
0
100
AcDbLine
10
-10.493340579698017
20
41.173828249518934
30
0
11
4.0063822515348555
21
41.173828249518934
31
0
0
LINE
5
135
100
AcDbEntity
8
0
100
AcDbLine
10
4.9488833791290228
20
41.105642840929853
30
0
11
6.9488784846310008
21
41.101218141151328
31
0
0
LINE
5
136
100
AcDbEntity
8
0
100
AcDbLine
10
7.8384841861758616
20
41.105642840929853
30
0
11
9.8384792916778387
21
41.101218141151328
31
0
0
LINE
5
137
100
AcDbEntity
8
0
100
AcDbLine
10
7.8384841861758616
20
41.105642840929853
30
0
11
9.8384792916778387
21
41.101218141151328
31
0
0
LINE
5
138
100
AcDbEntity
8
0
100
AcDbLine
10
13.641646453608738
20
40.884262428893159
30
0
11
15.141646453608738
21
41.445898180006935
31
0
0
LINE
5
139
100
AcDbEntity
8
0
100
AcDbLine
10
13.641646453608738
20
40.884262428893159
30
0
11
15.141646453608738
21
41.445898180006935
31
0
0
LINE
5
140
100
AcDbEntity
8
0
100
AcDbLine
10
15.895114193589784
20
10.869690793724907
30
0
11
15.895114193589784
21
40.884262428893159
31
0
0
LINE
5
141
100
AcDbEntity
8
0
100
AcDbLine
10
15.141646453608738
20
41.445898180006935
30
0
11
15.141646453608738
21
10.869690793724907
31
0
0
LINE
5
142
100
AcDbEntity
8
0
100
AcDbLine
10
15.141646453608738
20
10.869690793724907
30
0
11
14.74164645360873
21
10.869690793724907
31
0
0
LINE
5
143
100
AcDbEntity
8
0
100
AcDbLine
10
14.74164645360873
20
10.869690793724907
30
0
11
14.74164645360873
21
9.8842624288931642
31
0
0
LINE
5
144
100
AcDbEntity
8
0
100
AcDbLine
10
14.74164645360873
20
9.8842624288931642
30
0
11
14.041646453608724
21
9.8842624288931642
31
0
0
LINE
5
145
100
AcDbEntity
8
0
100
AcDbLine
10
14.74164645360873
20
9.8842624288931642
30
0
11
14.041646453608724
21
9.8842624288931642
31
0
0
LINE
5
146
100
AcDbEntity
8
0
100
AcDbLine
10
14.041646453608724
20
9.8842624288931642
30
0
11
14.041646453608724
21
10.869690793724907
31
0
0
LINE
5
147
100
AcDbEntity
8
0
100
AcDbLine
10
14.041646453608724
20
10.869690793724907
30
0
11
13.641646453608738
21
10.869690793724907
31
0
0
LINE
5
148
100
AcDbEntity
8
0
100
AcDbLine
10
13.641646453608738
20
10.869690793724907
30
0
11
13.641646453608738
21
40.884262428893159
31
0
0
LINE
5
149
100
AcDbEntity
8
0
100
AcDbLine
10
15.895114193589784
20
40.884262428893159
30
0
11
17.395114193589784
21
41.445898180006935
31
0
0
LINE
5
150
100
AcDbEntity
8
0
100
AcDbLine
10
17.395114193589784
20
41.445898180006935
30
0
11
17.395114193589784
21
10.869690793724907
31
0
0
LINE
5
151
100
AcDbEntity
8
0
100
AcDbLine
10
17.395114193589784
20
10.869690793724907
30
0
11
16.995114193589778
21
10.869690793724907
31
0
0
LINE
5
152
100
AcDbEntity
8
0
100
AcDbLine
10
16.995114193589778
20
10.869690793724907
30
0
11
16.995114193589778
21
9.8842624288931642
31
0
0
LINE
5
153
100
AcDbEntity
8
0
100
AcDbLine
10
16.995114193589778
20
9.8842624288931642
30
0
11
16.295114193589768
21
9.8842624288931642
31
0
0
LINE
5
154
100
AcDbEntity
8
0
100
AcDbLine
10
16.295114193589768
20
9.8842624288931642
30
0
11
16.295114193589768
21
10.869690793724907
31
0
0
LINE
5
155
100
AcDbEntity
8
0
100
AcDbLine
10
16.295114193589768
20
10.869690793724907
30
0
11
15.895114193589784
21
10.869690793724907
31
0
0
LINE
5
156
100
AcDbEntity
8
0
100
AcDbLine
10
15.895114193589784
20
10.869690793724907
30
0
11
15.895114193589784
21
40.884262428893159
31
0
0
LINE
5
157
100
AcDbEntity
8
0
100
AcDbLine
10
18.145114193589773
20
40.884262428893159
30
0
11
19.645114193589773
21
41.445898180006935
31
0
0
LINE
5
158
100
AcDbEntity
8
0
100
AcDbLine
10
19.645114193589773
20
41.445898180006935
30
0
11
19.645114193589773
21
10.869690793724907
31
0
0
LINE
5
159
100
AcDbEntity
8
0
100
AcDbLine
10
19.645114193589773
20
10.869690793724907
30
0
11
19.245114193589767
21
10.869690793724907
31
0
0
LINE
5
160
100
AcDbEntity
8
0
100
AcDbLine
10
19.245114193589767
20
10.869690793724907
30
0
11
19.245114193589767
21
9.8842624288931642
31
0
0
LINE
5
161
100
AcDbEntity
8
0
100
AcDbLine
10
19.245114193589767
20
9.8842624288931642
30
0
11
18.545114193589757
21
9.8842624288931642
31
0
0
LINE
5
162
100
AcDbEntity
8
0
100
AcDbLine
10
18.545114193589757
20
9.8842624288931642
30
0
11
18.545114193589757
21
10.869690793724907
31
0
0
LINE
5
163
100
AcDbEntity
8
0
100
AcDbLine
10
18.545114193589757
20
10.869690793724907
30
0
11
18.145114193589773
21
10.869690793724907
31
0
0
LINE
5
164
100
AcDbEntity
8
0
100
AcDbLine
10
18.145114193589773
20
10.869690793724907
30
0
11
18.145114193589773
21
40.884262428893159
31
0
0
LINE
5
165
100
AcDbEntity
8
0
100
AcDbLine
10
20.395114193589762
20
40.884262428893159
30
0
11
21.895114193589766
21
41.445898180006935
31
0
0
LINE
5
166
100
AcDbEntity
8
0
100
AcDbLine
10
21.895114193589766
20
41.445898180006935
30
0
11
21.895114193589766
21
10.869690793724907
31
0
0
LINE
5
167
100
AcDbEntity
8
0
100
AcDbLine
10
21.895114193589766
20
10.869690793724907
30
0
11
21.495114193589757
21
10.869690793724907
31
0
0
LINE
5
168
100
AcDbEntity
8
0
100
AcDbLine
10
21.495114193589757
20
10.869690793724907
30
0
11
21.495114193589757
21
9.8842624288931642
31
0
0
LINE
5
169
100
AcDbEntity
8
0
100
AcDbLine
10
21.495114193589757
20
9.8842624288931642
30
0
11
20.79511419358975
21
9.8842624288931642
31
0
0
LINE
5
170
100
AcDbEntity
8
0
100
AcDbLine
10
20.79511419358975
20
9.8842624288931642
30
0
11
20.79511419358975
21
10.869690793724907
31
0
0
LINE
5
171
100
AcDbEntity
8
0
100
AcDbLine
10
20.79511419358975
20
10.869690793724907
30
0
11
20.395114193589762
21
10.869690793724907
31
0
0
LINE
5
172
100
AcDbEntity
8
0
100
AcDbLine
10
20.395114193589762
20
10.869690793724907
30
0
11
20.395114193589762
21
40.884262428893159
31
0
0
LINE
5
173
100
AcDbEntity
8
0
100
AcDbLine
10
14.939333686876008
20
7.9553761612053107
30
0
11
14.939333686876008
21
8.3553761612053083
31
0
0
LINE
5
174
100
AcDbEntity
8
0
100
AcDbLine
10
15.039333686876004
20
8.455376161205308
30
0
11
15.564333686876008
21
8.455376161205308
31
0
0
LINE
5
175
100
AcDbEntity
8
0
100
AcDbLine
10
15.664333686876006
20
8.5553761612053094
30
0
11
15.664333686876006
21
8.9982346544820064
31
0
0
LINE
5
176
100
AcDbEntity
8
0
100
AcDbLine
10
15.864333686876011
20
9.1982346544820075
30
0
11
17.16433374113031
21
9.1982346544820075
31
0
0
LINE
5
177
100
AcDbEntity
8
0
100
AcDbLine
10
17.364333741130313
20
8.9982346544820064
30
0
11
17.364333741130313
21
8.5553761612053094
31
0
0
LINE
5
178
100
AcDbEntity
8
0
100
AcDbLine
10
17.464333741130311
20
8.455376161205308
30
0
11
17.989333741130313
21
8.455376161205308
31
0
0
LINE
5
179
100
AcDbEntity
8
0
100
AcDbLine
10
18.089333741130311
20
8.3553761612053083
30
0
11
18.089333741130311
21
7.9553761612053213
31
0
0
LINE
5
180
100
AcDbEntity
8
0
100
AcDbLine
10
18.089333741130311
20
7.9553761612053213
30
0
11
16.867554598508892
21
7.9553761774280582
31
0
0
LINE
5
181
100
AcDbEntity
8
0
100
AcDbLine
10
16.867554598508892
20
7.9553761774280582
30
0
11
16.867554606807616
21
8.5803760268539921
31
0
0
LINE
5
182
100
AcDbEntity
8
0
100
AcDbLine
10
16.767554606807614
20
8.6803760281817866
30
0
11
16.247577646373585
21
8.6803760281817883
31
0
0
LINE
5
183
100
AcDbEntity
8
0
100
AcDbLine
10
16.147577646373588
20
8.5803760281817887
30
0
11
16.147577646373588
21
7.9553761693166898
31
0
0
LINE
5
184
100
AcDbEntity
8
0
100
AcDbLine
10
16.147577646373588
20
7.9553761693166898
30
0
11
14.939333686876008
21
7.9553761612053107
31
0
0
LINE
5
185
100
AcDbEntity
8
0
100
AcDbLine
10
19.167854867742097
20
9.1549647541630481
30
0
11
19.167854870427444
21
8.7549647534917128
31
0
0
LINE
5
186
100
AcDbEntity
8
0
100
AcDbLine
10
19.267854870427442
20
8.6549647541630481
30
0
11
19.792854868413432
21
8.6549647541630481
31
0
0
LINE
5
187
100
AcDbEntity
8
0
100
AcDbLine
10
19.892854868413433
20
8.5549647548343852
30
0
11
19.892854871460511
21
8.1010826388391202
31
0
0
LINE
5
188
100
AcDbEntity
8
0
100
AcDbLine
10
20.08183125068193
20
7.9121062621550271
30
0
11
21.40387854404365
21
7.9121062710304111
31
0
0
LINE
5
189
100
AcDbEntity
8
0
100
AcDbLine
10
21.592854920727738
20
8.1010826502518327
30
0
11
21.592854917680665
21
8.5549647541630485
31
0
0
LINE
5
190
100
AcDbEntity
8
0
100
AcDbLine
10
21.692854917009328
20
8.6549647548343867
30
0
11
22.21785492266774
21
8.6549647583588989
31
0
0
LINE
5
191
100
AcDbEntity
8
0
100
AcDbLine
10
22.317854921996403
20
8.7549647583588985
30
0
11
22.3178549219964
21
9.1549647541630588
31
0
0
LINE
5
192
100
AcDbEntity
8
0
100
AcDbLine
10
22.3178549219964
20
9.1549647541630588
30
0
11
21.109610962498824
21
9.1549648874521754
31
0
0
LINE
5
193
100
AcDbEntity
8
0
100
AcDbLine
10
21.109610962498824
20
9.1549648874521754
30
0
11
21.109610893551078
21
8.5299648871865781
31
0
0
LINE
5
194
100
AcDbEntity
8
0
100
AcDbLine
10
21.009610882519436
20
8.4299648982182198
30
0
11
20.489630820366589
21
8.4299649555805427
31
0
0
LINE
5
195
100
AcDbEntity
8
0
100
AcDbLine
10
20.389630831448759
20
8.5299617765643774
30
0
11
20.389610962498821
21
9.1549648874521754
31
0
0
LINE
5
196
100
AcDbEntity
8
0
100
AcDbLine
10
20.389610962498821
20
9.1549648874521754
30
0
11
19.167854867742097
21
9.1549647541630481
31
0
0
LWPOLYLINE
5
197
100
AcDbEntity
8
0
100
AcDbPolyline
90
20
70
1
43
0.0
10
14.939333643237472
20
6.424316645393243
10
14.939333686876008
20
6.0243166556315408
10
16.147577646373588
20
6.0243165223424233
10
16.147577646373588
20
6.6493164549682939
42
-0.41421353041949671
10
16.247577635463955
20
6.7493164549682927
10
16.767577567278735
20
6.7493165116983844
42
-0.41421356237309509
10
16.867577578188371
20
6.6493165226080189
10
16.867577646373586
20
6.0243165223424233
10
18.089333741130311
20
6.0243166556315515
10
18.089333741130311
20
6.4243166622609866
42
0.41421356433939555
10
17.989333740458974
20
6.5243166622609854
10
17.464333811935166
20
6.5243166587364678
42
-0.41421353238578906
10
17.36433381126383
20
6.624316647826836
10
17.364333761746941
20
7.0781988017161677
42
0.41421353238581593
10
17.175357382525522
20
7.2671751590522913
10
15.853310003133581
20
7.2671751501769046
42
0.41421359236037258
10
15.664333626449494
20
7.0781987516075171
10
15.664333675966366
20
6.6243166707370262
42
-0.41421359236038113
10
15.564333676637707
20
6.5243166598273916
10
15.039333642566131
20
6.5243166563028776
42
0.41421359236039751
0
LINE
5
198
100
AcDbEntity
8
0
100
AcDbLine
10
20.389610962498821
20
7.2239053818784065
30
0
11
19.167854867742097
21
7.2239052485892774
31
0
0
LINE
5
199
100
AcDbEntity
8
0
100
AcDbLine
10
19.167854867742097
20
7.2239052485892774
30
0
11
19.167854823615542
21
6.8239052705305543
31
0
0
LINE
5
200
100
AcDbEntity
8
0
100
AcDbLine
10
19.267854834525181
20
6.7239052594989159
30
0
11
19.792854856832463
21
6.7239053167745002
31
0
0
LINE
5
201
100
AcDbEntity
8
0
100
AcDbLine
10
19.892854867742095
20
6.6239053167745015
30
0
11
19.892854867742095
21
6.1706783361825153
31
0
0
LINE
5
202
100
AcDbEntity
8
0
100
AcDbLine
10
20.081831266311482
20
5.9817019582297641
30
0
11
21.403878585507467
21
5.9817021024602939
31
0
0
LINE
5
203
100
AcDbEntity
8
0
100
AcDbLine
10
21.592854942843594
20
6.1706784595658553
30
0
11
21.592854992841939
21
6.6239052705305506
31
0
0
LINE
5
204
100
AcDbEntity
8
0
100
AcDbLine
10
21.692854981932303
20
6.7239052594989106
30
0
11
22.217854932906036
21
6.7239053167744878
31
0
0
LINE
5
205
100
AcDbEntity
8
0
100
AcDbLine
10
22.3178549219964
20
6.8239053167744865
30
0
11
22.3178549219964
21
7.223905248589289
31
0
0
LINE
5
206
100
AcDbEntity
8
0
100
AcDbLine
10
22.3178549219964
20
7.223905248589289
30
0
11
21.109610962498824
21
7.2239053818784065
31
0
0
LINE
5
207
100
AcDbEntity
8
0
100
AcDbLine
10
21.109610962498824
20
7.2239053818784065
30
0
11
21.109610893551075
21
6.598905359671539
31
0
0
LINE
5
208
100
AcDbEntity
8
0
100
AcDbLine
10
21.009610904460711
20
6.4989053707031763
30
0
11
20.489630842307861
21
6.4989053139752526
31
0
0
LINE
5
209
100
AcDbEntity
8
0
100
AcDbLine
10
20.389630831448759
20
6.5989021349597783
30
0
11
20.389610962498821
21
7.2239053818784065
31
0
0
LINE
5
210
100
AcDbEntity
8
0
100
AcDbLine
10
19.167854867742097
20
5.3421942596675267
30
0
11
19.167854911380289
21
4.9421974278235528
31
0
0
LINE
5
211
100
AcDbEntity
8
0
100
AcDbLine
10
19.267858090395766
20
4.8421974387837166
30
0
11
19.792851688726625
21
4.8422141284114462
31
0
0
LINE
5
212
100
AcDbEntity
8
0
100
AcDbLine
10
19.892854867742095
20
4.7422141284619777
30
0
11
19.892854867742095
21
4.2898726395042619
31
0
0
LINE
5
213
100
AcDbEntity
8
0
100
AcDbLine
10
20.081837253283148
20
4.1008962616469971
30
0
11
21.403884531015969
21
4.1009382897345334
31
0
0
LINE
5
214
100
AcDbEntity
8
0
100
AcDbLine
10
21.592854901380424
20
4.2899146882084302
30
0
11
21.592854852036773
21
4.7422089516534109
31
0
0
LINE
5
215
100
AcDbEntity
8
0
100
AcDbLine
10
21.692851673021298
20
4.8422089625125162
30
0
11
22.217858101011874
21
4.8422256525481027
31
0
0
LINE
5
216
100
AcDbEntity
8
0
100
AcDbLine
10
22.317854921996403
20
4.9422256524975712
30
0
11
22.3178549219964
21
5.3421942596675374
31
0
0
LINE
5
217
100
AcDbEntity
8
0
100
AcDbLine
10
22.3178549219964
20
5.3421942596675374
30
0
11
21.109634010363518
21
5.3421942434447898
31
0
0
LINE
5
218
100
AcDbEntity
8
0
100
AcDbLine
10
21.109634010363518
20
5.3421942434447898
30
0
11
21.109634078549064
21
4.7171912246354033
31
0
0
LINE
5
219
100
AcDbEntity
8
0
100
AcDbLine
10
21.009637257564538
20
4.6171912137762989
30
0
11
20.489614141514295
21
4.6171746821609698
31
0
0
LINE
5
220
100
AcDbEntity
8
0
100
AcDbLine
10
20.389610962498821
20
4.7171746821104392
30
0
11
20.389610962498821
21
5.3421943929566549
31
0
0
LINE
5
221
100
AcDbEntity
8
0
100
AcDbLine
10
20.389610962498821
20
5.3421943929566549
30
0
11
19.167854867742097
21
5.3421942596675267
31
0
0
LINE
5
222
100
AcDbEntity
8
0
100
AcDbLine
10
19.787858682992347
20
2.9823046935370661
30
0
11
19.287858682992354
21
2.9823046935370661
31
0
0
LINE
5
223
100
AcDbEntity
8
0
100
AcDbLine
10
19.187858682992342
20
3.4823046935370656
30
0
11
19.187858682992342
21
3.082304693537067
31
0
0
LINE
5
224
100
AcDbEntity
8
0
100
AcDbLine
10
19.28785868299234
20
2.9823046935370696
30
0
11
19.812858682992342
21
2.9823046935370678
31
0
0
LINE
5
225
100
AcDbEntity
8
0
100
AcDbLine
10
19.91285868299234
20
2.8823046935370673
30
0
11
19.91285868299234
21
2.4284225782131359
31
0
0
LINE
5
226
100
AcDbEntity
8
0
100
AcDbLine
10
20.101835060945096
20
2.2394462002603781
30
0
11
21.423882359293891
21
2.2394462002603799
31
0
0
LINE
5
227
100
AcDbEntity
8
0
100
AcDbLine
10
21.612858737246647
20
2.4284225782131359
30
0
11
21.612858737246647
21
2.882304693537066
31
0
0
LINE
5
228
100
AcDbEntity
8
0
100
AcDbLine
10
21.712858737246645
20
2.9823046935370638
30
0
11
22.237858737246647
21
2.9823046935370656
31
0
0
LINE
5
229
100
AcDbEntity
8
0
100
AcDbLine
10
22.337858737246645
20
3.0823046935370657
30
0
11
22.337858737246645
21
3.4823046935370785
31
0
0
LINE
5
230
100
AcDbEntity
8
0
100
AcDbLine
10
22.337858737246645
20
3.4823046935370785
30
0
11
21.129637825613759
21
3.4823046773143305
31
0
0
LINE
5
231
100
AcDbEntity
8
0
100
AcDbLine
10
21.129637825613759
20
3.4823046773143305
30
0
11
21.129637825613759
21
2.8573048265605978
31
0
0
LINE
5
232
100
AcDbEntity
8
0
100
AcDbLine
10
21.029637825613761
20
2.7573048265606004
30
0
11
20.509634646648472
21
2.7573048265605982
31
0
0
LINE
5
233
100
AcDbEntity
8
0
100
AcDbLine
10
20.409634646699004
20
2.8573016475447814
30
0
11
20.409614777749066
21
3.4823048268261956
31
0
0
LINE
5
234
100
AcDbEntity
8
0
100
AcDbLine
10
20.409614777749066
20
3.4823048268261956
30
0
11
19.187858682992342
21
3.4823046935370656
31
0
0
LINE
5
235
100
AcDbEntity
8
0
100
AcDbLine
10
16.855315397873085
20
2.3850392068221735
30
0
11
18.077071492629809
21
2.3850393401113021
31
0
0
LINE
5
236
100
AcDbEntity
8
0
100
AcDbLine
10
18.077071492629809
20
2.3850393401113021
30
0
11
18.077071448991266
21
2.7850393510209361
31
0
0
LINE
5
237
100
AcDbEntity
8
0
100
AcDbLine
10
17.977071448991268
20
2.8850393401112999
30
0
11
17.452071481720175
21
2.8850393401113004
31
0
0
LINE
5
238
100
AcDbEntity
8
0
100
AcDbLine
10
17.352071481720177
20
2.9850393292016655
30
0
11
17.352071432203292
21
3.4389214760518634
31
0
0
LINE
5
239
100
AcDbEntity
8
0
100
AcDbLine
10
17.16309505425054
20
3.6278978333879874
30
0
11
15.841047836944893
21
3.6278978333879874
31
0
0
LINE
5
240
100
AcDbEntity
8
0
100
AcDbLine
10
15.65207145899214
20
3.4389214348185981
30
0
11
15.652071508509017
21
2.9850393510209354
31
0
0
LINE
5
241
100
AcDbEntity
8
0
100
AcDbLine
10
15.552071508509018
20
2.8850393401113013
30
0
11
15.027071438375504
21
2.8850393401113004
31
0
0
LINE
5
242
100
AcDbEntity
8
0
100
AcDbLine
10
14.927071438375503
20
2.7850393401113007
30
0
11
14.927071438375505
21
2.385039340111291
31
0
0
LINE
5
243
100
AcDbEntity
8
0
100
AcDbLine
10
14.927071438375505
20
2.385039340111291
30
0
11
16.135315397873082
21
2.3850392068221735
31
0
0
LINE
5
244
100
AcDbEntity
8
0
100
AcDbLine
10
16.135315397873082
20
2.3850392068221735
30
0
11
16.135315329687867
21
3.0100391961781345
31
0
0
LINE
5
245
100
AcDbEntity
8
0
100
AcDbLine
10
16.235315329687865
20
3.1100392070877709
30
0
11
16.755295528973679
21
3.11003920708777
31
0
0
LINE
5
246
100
AcDbEntity
8
0
100
AcDbLine
10
16.855295528923147
20
3.0100423861035868
30
0
11
16.855315397873085
21
2.3850392068221735
31
0
0
LINE
5
247
100
AcDbEntity
8
0
100
AcDbLine
10
16.147577646373588
20
4.1426055334206726
30
0
11
14.939333686876008
21
4.1426056667097892
31
0
0
LINE
5
248
100
AcDbEntity
8
0
100
AcDbLine
10
15.539333686876008
20
4.642605666709799
30
0
11
15.039333686876015
21
4.6426056667097884
31
0
0
LINE
5
249
100
AcDbEntity
8
0
100
AcDbLine
10
14.939333686876008
20
4.1426056667097892
30
0
11
14.939333686875999
21
4.5426056667097887
31
0
0
LINE
5
250
100
AcDbEntity
8
0
100
AcDbLine
10
15.039333686875995
20
4.642605666709791
30
0
11
15.564333686876008
21
4.6426056667098017
31
0
0
LINE
5
251
100
AcDbEntity
8
0
100
AcDbLine
10
15.664333686876004
20
4.742605666709804
30
0
11
15.664333686875995
21
5.1964877820337314
31
0
0
LINE
5
252
100
AcDbEntity
8
0
100
AcDbLine
10
15.853310064828744
20
5.3854641599864914
30
0
11
17.175357363177554
21
5.3854641599865207
31
0
0
LINE
5
253
100
AcDbEntity
8
0
100
AcDbLine
10
17.36433374113032
20
5.1964877820337687
30
0
11
17.364333741130327
21
4.7426056667097996
31
0
0
LINE
5
254
100
AcDbEntity
8
0
100
AcDbLine
10
17.464333741130332
20
4.6426056667098008
30
0
11
17.989333741130309
21
4.6426056667098132
31
0
0
LINE
5
255
100
AcDbEntity
8
0
100
AcDbLine
10
18.089333741130311
20
4.5426056667098136
30
0
11
18.089333741130311
21
4.1426056667098008
31
0
0
LINE
5
256
100
AcDbEntity
8
0
100
AcDbLine
10
18.089333741130311
20
4.1426056667098008
30
0
11
16.867577646373586
21
4.1426055334206726
31
0
0
LINE
5
257
100
AcDbEntity
8
0
100
AcDbLine
10
16.867577646373586
20
4.1426055334206726
30
0
11
16.867577578188367
21
4.7676055336862682
31
0
0
LINE
5
258
100
AcDbEntity
8
0
100
AcDbLine
10
16.767577567278735
20
4.8676055227766346
30
0
11
16.247577635463955
21
4.8676054660465393
31
0
0
LINE
5
259
100
AcDbEntity
8
0
100
AcDbLine
10
16.147577646373588
20
4.7676054660465397
30
0
11
16.147577646373588
21
4.1426055334206726
31
0
0
LINE
5
260
100
AcDbEntity
8
0
100
AcDbLine
10
-3.5002298254529105
20
11.373828790184684
30
0
11
-7.9279125780651176
21
11.373828790184684
31
0
0
LINE
5
261
100
AcDbEntity
8
0
100
AcDbLine
10
-7.9279125780651176
20
11.373828790184684
30
0
11
-3.5002298254529105
21
11.373828790184684
31
0
0
LINE
5
262
100
AcDbEntity
8
0
100
AcDbLine
10
-3.4591899993049844
20
11.431079196782912
30
0
11
-6.4134027652285726
21
16.227460929512389
31
0
0
LINE
5
263
100
AcDbEntity
8
0
100
AcDbLine
10
-3.4591899993049844
20
11.431079196782912
30
0
11
-6.4134027652285726
21
16.227460929512389
31
0
0
LINE
5
264
100
AcDbEntity
8
0
100
AcDbLine
10
0.83385677732518215
20
16.586048793062506
30
0
11
-2.6628408790897469
21
11.432459123454501
31
0
0
LINE
5
265
100
AcDbEntity
8
0
100
AcDbLine
10
-2.6628408790897469
20
11.432459123454501
30
0
11
0.83385677732518215
21
16.586048793062506
31
0
0
LINE
5
266
100
AcDbEntity
8
0
100
AcDbLine
10
0.94953304991720167
20
16.592914609972212
30
0
11
2.2032818430261276
21
15.393769986396499
31
0
0
LINE
5
267
100
AcDbEntity
8
0
100
AcDbLine
10
-2.6226946743688981
20
11.373828790184684
30
0
11
2.5725957988993891
21
11.373828790184684
31
0
0
LINE
5
268
100
AcDbEntity
8
0
100
AcDbLine
10
-2.6226946743688981
20
11.373828790184684
30
0
11
2.5725957988993891
21
11.373828790184684
31
0
0
LINE
5
269
100
AcDbEntity
8
0
100
AcDbLine
10
0.080119519138644416
20
19.379867746513213
30
0
11
3.1370725790999807
21
16.739200343860343
31
0
0
LINE
5
270
100
AcDbEntity
8
0
100
AcDbLine
10
3.1370725790999807
20
16.739200343860343
30
0
11
0.080119519138644416
21
19.379867746513213
31
0
0
LINE
5
271
100
AcDbEntity
8
0
100
AcDbLine
10
4.4115998221831019
20
18.402751768116982
30
0
11
0.94919311854822142
21
20.402682664343342
31
0
0
LINE
5
272
100
AcDbEntity
8
0
100
AcDbLine
10
0.94919311854822142
20
20.402682664343342
30
0
11
4.4115998221831019
21
18.402751768116982
31
0
0
LINE
5
273
100
AcDbEntity
8
0
100
AcDbLine
10
4.6567681625140507
20
20.022342887241948
30
0
11
1.6999265974870192
21
21.752319998728563
31
0
0
LINE
5
274
100
AcDbEntity
8
0
100
AcDbLine
10
4.8436597427109227
20
21.702621886198731
30
0
11
2.0712550952133593
21
22.521593101790312
31
0
0
LINE
5
275
100
AcDbEntity
8
0
100
AcDbLine
10
2.0712550952133593
20
22.521593101790312
30
0
11
4.8436597427109227
21
21.702621886198731
31
0
0
LINE
5
276
100
AcDbEntity
8
0
100
AcDbLine
10
5.0067255595182445
20
24.587432147254347
30
0
11
2.5285668905761405
21
24.587432147254347
31
0
0
LINE
5
277
100
AcDbEntity
8
0
100
AcDbLine
10
5.0067255595182445
20
24.587432147254347
30
0
11
2.5285668905761405
21
24.587432147254347
31
0
0
LINE
5
278
100
AcDbEntity
8
0
100
AcDbLine
10
2.4108703620499106
20
23.850574379478946
30
0
11
4.9490535242883507
21
23.128623687960719
31
0
0
LINE
5
279
100
AcDbEntity
8
0
100
AcDbLine
10
5.0152177084481018
20
25.924604590837543
30
0
11
2.5285668905761405
21
25.924604675143271
31
0
0
LINE
5
280
100
AcDbEntity
8
0
100
AcDbLine
10
4.9757699386576935
20
27.391011830877495
30
0
11
2.4108703620499106
21
26.661462029054274
31
0
0
LINE
5
281
100
AcDbEntity
8
0
100
AcDbLine
10
2.4108703620499106
20
26.661462029054274
30
0
11
4.9757699386576935
21
27.391011830877495
31
0
0
LINE
5
282
100
AcDbEntity
8
0
100
AcDbLine
10
4.8881382316921966
20
28.819775714806109
30
0
11
2.0712550952133593
21
27.990443306741561
31
0
0
LINE
5
283
100
AcDbEntity
8
0
100
AcDbLine
10
4.7193933378185253
20
30.526334009967091
30
0
11
1.6999265974870192
21
28.759716409804703
31
0
0
LINE
5
284
100
AcDbEntity
8
0
100
AcDbLine
10
1.6999265974870192
20
28.759716409804703
30
0
11
4.7193933378185253
21
30.526334009967091
31
0
0
LINE
5
285
100
AcDbEntity
8
0
100
AcDbLine
10
4.4924040919037411
20
32.155958057438077
30
0
11
0.94919311854822142
21
30.109353744189878
31
0
0
ARC
5
286
100
AcDbEntity
8
0
100
AcDbCircle
10
2.8290270732635645
20
34.552631564448546
30
0
40
0.79148221483588133
100
AcDbArc
50
-49.178779164492965
51
130.45604721292017
0
LINE
5
287
100
AcDbEntity
8
0
100
AcDbLine
10
0.080119576358438332
20
31.1321685833279
30
0
11
3.3464197332093932
21
33.953675028600003
31
0
0
LINE
5
288
100
AcDbEntity
8
0
100
AcDbLine
10
2.3154623347450238
20
35.154873505658138
30
0
11
-1.8690246766430674
21
31.564813661332973
31
0
0
LINE
5
289
100
AcDbEntity
8
0
100
AcDbLine
10
-1.9883732414166617
20
32.900900619418401
30
0
11
-1.9883732414166617
21
31.590981281782749
31
0
0
LINE
5
290
100
AcDbEntity
8
0
100
AcDbLine
10
-1.9883732414166617
20
31.590981281782749
30
0
11
-1.9883732414166617
21
32.900900619418401
31
0
0
LINE
5
291
100
AcDbEntity
8
0
100
AcDbLine
10
-1.9632581401360116
20
32.934786430567542
30
0
11
0.053493353186908059
21
33.978205124099794
31
0
0
LINE
5
292
100
AcDbEntity
8
0
100
AcDbLine
10
0.053493353186908059
20
33.978205124099794
30
0
11
0.053493353186908059
21
35.54121831222816
31
0
0
LINE
5
293
100
AcDbEntity
8
0
100
AcDbLine
10
-1.8806173729795306
20
34.540555937568634
30
0
11
0.053493353186908059
21
35.54121831222816
31
0
0
LINE
5
294
100
AcDbEntity
8
0
100
AcDbLine
10
0.053493353186908059
20
35.54121831222816
30
0
11
-1.8806173729795306
21
34.540555937568634
31
0
0
LINE
5
295
100
AcDbEntity
8
0
100
AcDbLine
10
-1.9883732414166617
20
34.989899381334858
30
0
11
-1.9883732414166617
21
34.574441779118658
31
0
0
LINE
5
296
100
AcDbEntity
8
0
100
AcDbLine
10
-1.9883732414166617
20
34.574441779118658
30
0
11
-1.9883732414166617
21
34.989899381334858
31
0
0
LINE
5
297
100
AcDbEntity
8
0
100
AcDbLine
10
-1.9630751031045197
20
35.023879550327507
30
0
11
0.053493353186908059
21
36.059697451463251
31
0
0
LINE
5
298
100
AcDbEntity
8
0
100
AcDbLine
10
0.053493353186908059
20
37.622735620684558
30
0
11
0.053493353186908059
21
36.059697451463251
31
0
0
LINE
5
299
100
AcDbEntity
8
0
100
AcDbLine
10
0.053493353186908059
20
36.059697451463251
30
0
11
0.053493353186908059
21
37.622735620684558
31
0
0
LINE
5
300
100
AcDbEntity
8
0
100
AcDbLine
10
-1.8808005019138285
20
36.629178042119818
30
0
11
0.053493353186908059
21
37.622735620684558
31
0
0
LINE
5
301
100
AcDbEntity
8
0
100
AcDbLine
10
0.053493353186908059
20
37.622735620684558
30
0
11
-1.8808005019138285
21
36.629178042119818
31
0
0
LINE
5
302
100
AcDbEntity
8
0
100
AcDbLine
10
-1.9883732904240361
20
37.093387877969697
30
0
11
-1.9883732414166617
21
36.663158211112489
31
0
0
LINE
5
303
100
AcDbEntity
8
0
100
AcDbLine
10
-1.9883732414166617
20
36.663158211112489
30
0
11
-1.9883732904240361
21
37.093387877969697
31
0
0
LINE
5
304
100
AcDbEntity
8
0
100
AcDbLine
10
-1.9628644229191259
20
37.127475865733892
30
0
11
0.053493353186908059
21
38.154623717181977
31
0
0
LINE
5
305
100
AcDbEntity
8
0
100
AcDbLine
10
0.053493353186908059
20
39.646295443409812
30
0
11
0.053493353186908059
21
38.154623717181977
31
0
0
LINE
5
306
100
AcDbEntity
8
0
100
AcDbLine
10
0.053493353186908059
20
38.154623717181977
30
0
11
0.053493353186908059
21
39.646295443409812
31
0
0
LINE
5
307
100
AcDbEntity
8
0
100
AcDbLine
10
0.068674400669372623
20
39.673828249518955
30
0
11
2.5725957988993891
21
39.673828249518955
31
0
0
LINE
5
308
100
AcDbEntity
8
0
100
AcDbLine
10
-1.9883732414166617
20
39.646295252294181
30
0
11
-1.9883732414166617
21
38.783315030108312
31
0
0
LINE
5
309
100
AcDbEntity
8
0
100
AcDbLine
10
-1.9883732414166617
20
39.646295252294181
30
0
11
-1.9883732414166617
21
38.783315030108312
31
0
0
LINE
5
310
100
AcDbEntity
8
0
100
AcDbLine
10
-1.8787820428873001
20
38.750414228950916
30
0
11
-0.32815171697058881
21
39.613394451136784
31
0
0
LINE
5
311
100
AcDbEntity
8
0
100
AcDbLine
10
-1.8787820428873001
20
38.750414228950916
30
0
11
-0.32815171697058881
21
39.613394451136784
31
0
0
LINE
5
312
100
AcDbEntity
8
0
100
AcDbLine
10
-1.9883732414166617
20
39.646295252294181
30
0
11
-1.9883732414166617
21
38.783315030108312
31
0
0
LINE
5
313
100
AcDbEntity
8
0
100
AcDbLine
10
-0.32005332713539453
20
39.673828249518955
30
0
11
-1.9731919519662424
21
39.673828249518955
31
0
0
LINE
5
314
100
AcDbEntity
8
0
100
AcDbLine
10
-3.9988532858135244
20
38.783315030108312
30
0
11
-3.9988532858135244
21
39.646295252294181
31
0
0
LINE
5
315
100
AcDbEntity
8
0
100
AcDbLine
10
-3.9988532858135244
20
39.646295252294181
30
0
11
-3.9988532858135244
21
38.783315030108312
31
0
0
ELLIPSE
5
316
100
AcDbEntity
8
0
100
AcDbEllipse
10
-4.0652887247210234
20
38.783315030108334
30
0
11
0.066435438907487307
21
-2.2947174766226875e-17
31
0.0
40
0.65137357894736847
41
4.0053446749093009
42
6.2831853071793589
0
LINE
5
317
100
AcDbEntity
8
0
100
AcDbLine
10
-4.1084444843428862
20
38.750414228950916
30
0
11
-5.6590748102595949
21
39.613394451136784
31
0
0
LINE
5
318
100
AcDbEntity
8
0
100
AcDbLine
10
-4.0140345752639659
20
39.673828249518955
30
0
11
-5.6671732000947888
21
39.673828249518955
31
0
0
LINE
5
319
100
AcDbEntity
8
0
100
AcDbLine
10
-5.6671732000947888
20
39.673828249518955
30
0
11
-4.0140345752639659
21
39.673828249518955
31
0
0
LINE
5
320
100
AcDbEntity
8
0
100
AcDbLine
10
-4.0140345752639659
20
39.673828249518955
30
0
11
-5.6671732000947888
21
39.673828249518955
31
0
0
LINE
5
321
100
AcDbEntity
8
0
100
AcDbLine
10
-7.9279125780651176
20
39.673828249518955
30
0
11
-6.0559011317680973
21
39.673828249518955
31
0
0
LINE
5
322
100
AcDbEntity
8
0
100
AcDbLine
10
-6.0407198484046232
20
38.154623717181977
30
0
11
-6.040719842317678
21
39.646295252294181
31
0
0
LINE
5
323
100
AcDbEntity
8
0
100
AcDbLine
10
-6.040719842317678
20
39.646295252294181
30
0
11
-6.0407198484046232
21
38.154623717181977
31
0
0
LINE
5
324
100
AcDbEntity
8
0
100
AcDbLine
10
-4.0243621043110602
20
37.127475865733892
30
0
11
-6.0407198484046232
21
38.154623717181977
31
0
0
LINE
5
325
100
AcDbEntity
8
0
100
AcDbLine
10
-3.9988532858135244
20
37.093387928061546
30
0
11
-3.9988532858135244
21
36.663158211112489
31
0
0
LINE
5
326
100
AcDbEntity
8
0
100
AcDbLine
10
-6.0407198484046232
20
37.622735620684558
30
0
11
-4.10642602531638
21
36.629178042119818
31
0
0
LINE
5
327
100
AcDbEntity
8
0
100
AcDbLine
10
-4.10642602531638
20
36.629178042119818
30
0
11
-6.0407198484046232
21
37.622735620684558
31
0
0
LINE
5
328
100
AcDbEntity
8
0
100
AcDbLine
10
-6.0407198484046232
20
36.059697451463251
30
0
11
-6.0407198484046232
21
37.622735620684558
31
0
0
LINE
5
329
100
AcDbEntity
8
0
100
AcDbLine
10
-6.0407198484046232
20
36.059697451463251
30
0
11
-4.024151424125666
21
35.023879550327507
31
0
0
LINE
5
330
100
AcDbEntity
8
0
100
AcDbLine
10
-3.9988532858135244
20
34.574441779118658
30
0
11
-3.9988532827439127
21
34.989899393288091
31
0
0
LINE
5
331
100
AcDbEntity
8
0
100
AcDbLine
10
-3.9988532827439127
20
34.989899393288091
30
0
11
-3.9988532858135244
21
34.574441779118658
31
0
0
LINE
5
332
100
AcDbEntity
8
0
100
AcDbLine
10
-6.0407198484046232
20
35.54121831222816
30
0
11
-4.1066090623478715
21
34.540555967969546
31
0
0
LINE
5
333
100
AcDbEntity
8
0
100
AcDbLine
10
-4.1066090623478715
20
34.540555967969546
30
0
11
-6.0407198484046232
21
35.54121831222816
31
0
0
LINE
5
334
100
AcDbEntity
8
0
100
AcDbLine
10
-6.0407198484046232
20
33.978205124099794
30
0
11
-6.0407198484046232
21
35.54121831222816
31
0
0
LINE
5
335
100
AcDbEntity
8
0
100
AcDbLine
10
-6.0407198484046232
20
33.978205124099794
30
0
11
-4.0239683870941745
21
32.934786430567542
31
0
0
LINE
5
336
100
AcDbEntity
8
0
100
AcDbLine
10
-3.998853285813547
20
15.819328448376559
30
0
11
-3.9988532858135244
21
32.900900619418401
31
0
0
LINE
5
337
100
AcDbEntity
8
0
100
AcDbLine
10
-3.9988532858135244
20
32.900900619418401
30
0
11
-3.998853285813547
21
15.819328448376559
31
0
0
LINE
5
338
100
AcDbEntity
8
0
100
AcDbLine
10
-6.3995516403929509
20
16.79818913960947
30
0
11
-4.1025773136383927
21
15.783513999245798
31
0
0
LINE
5
339
100
AcDbEntity
8
0
100
AcDbLine
10
-4.1025773136383927
20
15.783513999245798
30
0
11
-6.3995516403929509
21
16.79818913960947
31
0
0
ARC
5
340
100
AcDbEntity
8
0
100
AcDbCircle
10
-47.758105694991933
20
25.523828519847548
30
0
40
42.268981251992074
100
AcDbArc
50
340.44200450498624
51
347.31624195763465
0
ARC
5
341
100
AcDbEntity
8
0
100
AcDbCircle
10
-47.758105695005398
20
25.523828519851833
30
0
40
42.268981252004835
100
AcDbArc
50
340.44200450498687
51
347.316241957633
0
ARC
5
342
100
AcDbEntity
8
0
100
AcDbCircle
10
-6.4734187928122724
20
16.19049554086579
30
0
40
0.070486619472930875
100
AcDbArc
50
31.629965737311874
51
132.04180702524366
0
ARC
5
343
100
AcDbEntity
8
0
100
AcDbCircle
10
-47.75810569500549
20
25.523828519851822
30
0
40
42.268981252004814
100
AcDbArc
50
-11.913296935076232
51
19.557995495013092
0
ARC
5
344
100
AcDbEntity
8
0
100
AcDbCircle
10
-47.758105695005398
20
25.523828519851833
30
0
40
42.268981252004835
100
AcDbArc
50
-11.913296935076284
51
19.55799549501311
0
ARC
5
345
100
AcDbEntity
8
0
100
AcDbCircle
10
-6.0732775997291704
20
39.646295252427038
30
0
40
0.032557757411492305
100
AcDbArc
50
0
51
57.743391027904025
0
ARC
5
346
100
AcDbEntity
8
0
100
AcDbCircle
10
-4.0343838870459798
20
37.093387928061546
30
0
40
0.03553060123245496
100
AcDbArc
50
0
51
73.616773617467871
0
ARC
5
347
100
AcDbEntity
8
0
100
AcDbCircle
10
-4.0697979297786464
20
36.700486943061897
30
0
40
0.080165932516801999
100
AcDbArc
50
242.81252388182369
51
332.2481346458373
0
ARC
5
348
100
AcDbEntity
8
0
100
AcDbCircle
10
-4.0343232207307231
20
34.989899393550154
30
0
40
0.035469937986810661
100
AcDbArc
50
0
51
73.335181828484693
0
ARC
5
349
100
AcDbEntity
8
0
100
AcDbCircle
10
-4.069785226316192
20
34.61173020457543
30
0
40
0.080135927376670052
100
AcDbArc
50
242.64404306423663
51
332.26940884399249
0
ARC
5
350
100
AcDbEntity
8
0
100
AcDbCircle
10
-4.0342705530921297
20
32.900900619418408
30
0
40
0.035417267278604898
100
AcDbArc
50
0
51
73.08936704482656
0
ARC
5
351
100
AcDbEntity
8
0
100
AcDbCircle
10
-4.0652879991890245
20
15.843625951826688
30
0
40
0.070738531333290194
100
AcDbArc
50
238.18738552551991
51
339.91076240081924
0
ELLIPSE
5
352
100
AcDbEntity
8
0
100
AcDbEllipse
10
-4.0652879991890361
20
15.819328164009859
30
0
11
0.06643471337693703
21
-1.4751469685089675e-17
31
0.0
40
0.65137357894736836
41
4.1164421469871506
42
6.2831918785132288
0
ARC
5
353
100
AcDbEntity
8
0
100
AcDbCircle
10
-3.5002298254529096
20
11.417163647356404
30
0
40
0.043334857171720684
100
AcDbArc
50
-90.00000000000118
51
18.730475933751137
0
ARC
5
354
100
AcDbEntity
8
0
100
AcDbCircle
10
-2.6226946743688977
20
11.416888700057459
30
0
40
0.043059909872774776
100
AcDbArc
50
158.80156704755942
51
269.99999999999937
0
ARC
5
355
100
AcDbEntity
8
0
100
AcDbCircle
10
-37.158372866111435
20
25.523828519851932
30
0
40
42.175494821159376
100
AcDbArc
50
340.39687964678546
51
350.27938985783442
0
ARC
5
356
100
AcDbEntity
8
0
100
AcDbCircle
10
-37.158372866111591
20
25.523828519851811
30
0
40
42.175494821159653
100
AcDbArc
50
340.39687964678569
51
350.27938985783464
0
ARC
5
357
100
AcDbEntity
8
0
100
AcDbCircle
10
0.8948825721285405
20
16.535775571675028
30
0
40
0.079066708670946728
100
AcDbArc
50
46.275257942990933
51
140.51820717934945
0
ARC
5
358
100
AcDbEntity
8
0
100
AcDbCircle
10
2.5987740659988279
20
16.116042241804763
30
0
40
0.82346299817564506
100
AcDbArc
50
-118.70364438110546
51
49.178780512136242
0
ARC
5
359
100
AcDbEntity
8
0
100
AcDbCircle
10
-8.1556419541602434
20
26.80481735013926
30
0
40
11.053404710207616
100
AcDbArc
50
318.13275080852907
51
324.51545091054635
0
ELLIPSE
5
360
100
AcDbEntity
8
0
100
AcDbEllipse
10
-15.327618922760507
20
25.270076651069726
30
0
11
-17.824494081803106
21
2.9088031168154526e-15
31
0.0
40
0.65137357894736847
41
3.5755322329044317
42
3.6688927545805168
0
ARC
5
361
100
AcDbEntity
8
0
100
AcDbCircle
10
0.90617362389586509
20
20.328204597649961
30
0
40
0.086009646775973767
100
AcDbArc
50
59.988714077127021
51
135.490727238038
0
ARC
5
362
100
AcDbEntity
8
0
100
AcDbCircle
10
0.09892142686329411
20
19.405698560104494
30
0
40
0.031949063599324617
100
AcDbArc
50
136.4828663292964
51
233.9496220013595
0
ELLIPSE
5
363
100
AcDbEntity
8
0
100
AcDbEllipse
10
0.13316476673946503
20
19.405922008137555
30
0
11
-0.066435792988117803
21
1.0653937416431391e-17
31
0.0
40
0.65137357894736847
41
5.7558868163049492
42
6.9292756014443908
0
ARC
5
364
100
AcDbEntity
8
0
100
AcDbCircle
10
-1.9190985854027078
20
19.57272316762791
30
0
40
0.075761016762816658
100
AcDbArc
50
203.8816125372484
51
313.48862573735005
0
ELLIPSE
5
365
100
AcDbEntity
8
0
100
AcDbEllipse
10
-1.9219378025095435
20
19.542051459245506
30
0
11
-0.0664354389071075
21
1.8595681678060807e-13
31
0.0
40
0.65137357894736825
41
2.8421709430404007e-13
42
2.5455284396754196
0
ELLIPSE
5
366
100
AcDbEntity
8
0
100
AcDbEllipse
10
-14.846399360934095
20
25.256018204265938
30
0
11
15.686706273458119
21
-6.6302373857662489e-15
31
0.0
40
0.65137357894736836
41
5.6868806901493745
42
6.8794899242097971
0
ARC
5
367
100
AcDbEntity
8
0
100
AcDbCircle
10
-1.9186059079665279
20
30.93685095955642
30
0
40
0.077235627091085557
100
AcDbArc
50
48.033798647565725
51
154.59596307783349
0
ELLIPSE
5
368
100
AcDbEntity
8
0
100
AcDbEllipse
10
-1.9219378025095435
20
30.969984949286346
30
0
11
-0.066435438907104877
21
2.2947174766141943e-17
31
0.0
40
0.65137357894736847
41
3.7376568675075683
42
6.2831853071837926
0
LWPOLYLINE
5
369
100
AcDbEntity
8
0
100
AcDbPolyline
90
6
70
1
43
0.0
10
-1.8846491819206992
20
15.783513406074114
42
-0.47548514467148389
10
-1.9883732414166617
20
15.819328448376559
10
-1.9883732904240354
20
18.953433578156922
42
-0.50475739904238714
10
-1.8696054102014432
20
18.980092157842552
10
0.58919485023284723
20
16.932148732175108
42
-0.6366534680437721
10
0.57415082581357635
20
16.869674725739149
0
ELLIPSE
5
370
100
AcDbEntity
8
0
100
AcDbEllipse
10
-1.9219378025091853
20
15.819328448376559
30
0
11
-0.066435438907476232
21
7.7623376786945175e-15
31
0.0
40
0.65137357894736847
41
1.7053025658242404e-13
42
2.1667231342610003
0
ELLIPSE
5
371
100
AcDbEntity
8
0
100
AcDbEllipse
10
0.53686130587145608
20
16.905490139597905
30
0
11
0.066436415790177658
21
-2.7045163668254291e-17
31
0.0
40
0.65137357894736836
41
5.3083221724204126
42
6.9468764116353148
0
ELLIPSE
5
372
100
AcDbEntity
8
0
100
AcDbEllipse
10
-1.9219378151720863
20
18.953433610749595
30
0
11
-0.066435475251954174
21
1.4751638855326859e-17
31
0.0
40
0.65137357894736847
41
3.8052934951916764
42
6.2831860603445406
0
ARC
5
373
100
AcDbEntity
8
0
100
AcDbCircle
10
-6.1284201816727286
20
25.561439627844425
30
0
40
8.6691096537308532
100
AcDbArc
50
334.2666639218242
51
339.26754709590017
0
ELLIPSE
5
374
100
AcDbEntity
8
0
100
AcDbEllipse
10
-15.327618924129203
20
25.270076651289667
30
0
11
-17.824494083207778
21
3.4333179319108908e-15
31
0.0
40
0.65137357894736847
41
3.3831640627327739
42
3.4453372520961838
0
ARC
5
375
100
AcDbEntity
8
0
100
AcDbCircle
10
2.0468262536351607
20
22.438895892614969
30
0
40
0.086229906101327441
100
AcDbArc
50
73.54280475194561
51
141.5344753712894
0
ARC
5
376
100
AcDbEntity
8
0
100
AcDbCircle
10
1.720549644579652
20
21.78756848984218
30
0
40
0.040838293269574763
100
AcDbArc
50
165.98698720716115
51
239.66912066688363
0
ARC
5
377
100
AcDbEntity
8
0
100
AcDbCircle
10
-37.158372866084264
20
25.523828519848621
30
0
40
42.175494821101466
100
AcDbArc
50
352.50482471025578
51
354.8017287276034
0
ARC
5
378
100
AcDbEntity
8
0
100
AcDbCircle
10
-37.158372866111591
20
25.523828519851811
30
0
40
42.175494821159653
100
AcDbArc
50
352.50482471025629
51
354.80172872760249
0
ARC
5
379
100
AcDbEntity
8
0
100
AcDbCircle
10
-37.158372866122214
20
25.523828519852916
30
0
40
42.175494821172975
100
AcDbArc
50
356.74434157425463
51
358.72779278130508
0
ARC
5
380
100
AcDbEntity
8
0
100
AcDbCircle
10
-37.158372866111591
20
25.523828519851811
30
0
40
42.175494821159646
100
AcDbArc
50
356.74434157425532
51
358.72779278130628
0
ARC
5
381
100
AcDbEntity
8
0
100
AcDbCircle
10
2.5285668905761431
20
24.512970165767982
30
0
40
0.074461981486362377
100
AcDbArc
50
90.000000000002046
51
152.93267985160378
0
ARC
5
382
100
AcDbEntity
8
0
100
AcDbCircle
10
2.4259320940340574
20
23.903527351150625
30
0
40
0.05505336483107677
100
AcDbArc
50
188.53534835995674
51
254.12233920574516
0
ARC
5
383
100
AcDbEntity
8
0
100
AcDbCircle
10
-5.1830329261622134
20
25.279988478038156
30
0
40
7.6803645547687118
100
AcDbArc
50
349.61380921273422
51
354.52244549775224
0
ELLIPSE
5
384
100
AcDbEntity
8
0
100
AcDbEllipse
10
-15.327618922967337
20
25.270076651036291
30
0
11
-17.824494081990686
21
2.9088031168571033e-15
31
0.0
40
0.65137357894736847
41
3.2039239914434119
42
3.2602752447248018
0
ARC
5
385
100
AcDbEntity
8
0
100
AcDbCircle
10
-37.158372866167127
20
25.523828519849694
30
0
40
42.175494821183406
100
AcDbArc
50
0.54446600081339436
51
2.537414244251019
0
ARC
5
386
100
AcDbEntity
8
0
100
AcDbCircle
10
-37.158372866111591
20
25.523828519851811
30
0
40
42.175494821159646
100
AcDbArc
50
0.54446600081138607
51
2.5374142442514498
0
ARC
5
387
100
AcDbEntity
8
0
100
AcDbCircle
10
-5.1889479163154393
20
25.231223803765094
30
0
40
7.6863312070512952
100
AcDbArc
50
5.4794608754818093
51
10.384284414037619
0
ELLIPSE
5
388
100
AcDbEntity
8
0
100
AcDbEllipse
10
-15.327618924116805
20
25.241959757422588
30
0
11
17.824494083145584
21
-4.7446049688559282e-15
31
0.0
40
0.65137357894736858
41
6.1645027160458543
42
6.220853969323314
0
ARC
5
389
100
AcDbEntity
8
0
100
AcDbCircle
10
2.4108142374133554
20
26.621803909401216
30
0
40
0.039658159367158191
100
AcDbArc
50
89.918914394262288
51
187.42339804003589
0
ELLIPSE
5
390
100
AcDbEntity
8
0
100
AcDbEllipse
10
2.4374565713423841
20
26.62180390940124
30
0
11
-0.066435438907514868
21
2.0898288770984786e-17
31
0.0
40
0.65137357894736847
41
5.1241034685823257
42
6.4018678983156168
0
ARC
5
391
100
AcDbEntity
8
0
100
AcDbCircle
10
2.5285668931006682
20
25.999067006329856
30
0
40
0.074462331186589611
100
AcDbArc
50
207.06784244350177
51
269.99999805747711
0
ARC
5
392
100
AcDbEntity
8
0
100
AcDbCircle
10
-6.1820243709767286
20
24.927585558404214
30
0
40
8.7273890827555753
100
AcDbArc
50
20.749160760681569
51
25.716628221767021
0
ELLIPSE
5
393
100
AcDbEntity
8
0
100
AcDbEllipse
10
-15.327618923224476
20
25.24195975739676
30
0
11
17.824494082272544
21
-4.4823475612703063e-15
31
0.0
40
0.65137357894736847
41
5.9794407086704942
42
6.0416138980371015
0
ARC
5
394
100
AcDbEntity
8
0
100
AcDbCircle
10
1.7205496445809172
20
28.724467918688923
30
0
40
0.040838293272077185
100
AcDbArc
50
120.33087933311552
51
194.01301278751393
0
ARC
5
395
100
AcDbEntity
8
0
100
AcDbCircle
10
2.0468684729933058
20
28.073274104404035
30
0
40
0.086346096522688279
100
AcDbArc
50
218.5175046907018
51
286.4052151828522
0
ARC
5
396
100
AcDbEntity
8
0
100
AcDbCircle
10
-37.158372865980873
20
25.523828519864377
30
0
40
42.175494821027954
100
AcDbArc
50
4.4821432856265737
51
6.8119843615653402
0
ARC
5
397
100
AcDbEntity
8
0
100
AcDbCircle
10
-37.158372866111591
20
25.523828519851811
30
0
40
42.175494821159667
100
AcDbArc
50
4.482143285629749
51
6.8119843615612643
0
ARC
5
398
100
AcDbEntity
8
0
100
AcDbCircle
10
-37.158372866111684
20
25.523828519851843
30
0
40
42.175494821158615
100
AcDbArc
50
9.0473576287281468
51
19.603120353214241
0
ARC
5
399
100
AcDbEntity
8
0
100
AcDbCircle
10
-37.158372866111591
20
25.523828519851811
30
0
40
42.175494821159653
100
AcDbArc
50
9.0473576287282285
51
19.603120353214354
0
ARC
5
400
100
AcDbEntity
8
0
100
AcDbCircle
10
2.8290270732635645
20
34.552631564448546
30
0
40
0.79148221483588033
100
AcDbArc
50
-49.17877916449256
51
130.45604721292017
0
ARC
5
401
100
AcDbEntity
8
0
100
AcDbCircle
10
-8.1681986498349985
20
23.697167917246347
30
0
40
11.069463833720652
100
AcDbArc
50
35.489183752535503
51
41.862614528386239
0
ARC
5
402
100
AcDbEntity
8
0
100
AcDbCircle
10
0.90617362459361761
20
30.183831816019136
30
0
40
0.086009650874274673
100
AcDbArc
50
224.5092748724264
51
300.01128380915077
0
ARC
5
403
100
AcDbEntity
8
0
100
AcDbCircle
10
0.098465216910412032
20
31.106379432826127
30
0
40
0.031648741062879335
100
AcDbArc
50
125.42692412877969
51
224.14043451677182
0
ELLIPSE
5
404
100
AcDbEntity
8
0
100
AcDbEllipse
10
0.13316440693832568
20
31.106114344541478
30
0
11
-0.066435438911442171
21
-1.6394571758733485e-18
31
0.0
40
0.65137357894736836
41
5.6370916550508623
42
6.8104854079306563
0
ARC
5
405
100
AcDbEntity
8
0
100
AcDbCircle
10
-1.9188375988163897
20
31.622874399836558
30
0
40
0.076500827257139831
100
AcDbArc
50
204.63896233897509
51
310.62777945614721
0
ARC
5
406
100
AcDbEntity
8
0
100
AcDbCircle
10
-1.9412299377304787
20
32.892209648713859
30
0
40
0.047937710148012125
100
AcDbArc
50
117.35595777512654
51
169.55467518005005
0
ARC
5
407
100
AcDbEntity
8
0
100
AcDbCircle
10
-1.917441240948607
20
34.611730231537813
30
0
40
0.08013599300074685
100
AcDbArc
50
207.73058826951865
51
297.35595837029013
0
ARC
5
408
100
AcDbEntity
8
0
100
AcDbCircle
10
-1.941111859408623
20
34.981120698229653
30
0
40
0.04806977747370323
100
AcDbArc
50
117.18746793100946
51
169.47737663239727
0
ARC
5
409
100
AcDbEntity
8
0
100
AcDbCircle
10
-1.9174285972207208
20
36.70048694379264
30
0
40
0.080165933061335765
100
AcDbArc
50
207.75186573954306
51
297.1874757327904
0
ARC
5
410
100
AcDbEntity
8
0
100
AcDbCircle
10
-1.9409762543675122
20
37.084507972843362
30
0
40
0.048221693686517575
100
AcDbArc
50
116.99463636223136
51
169.38856519043341
0
ARC
5
411
100
AcDbEntity
8
0
100
AcDbCircle
10
0.086051041187357777
20
39.646295443409819
30
0
40
0.032557688000448573
100
AcDbArc
50
122.25704515377041
51
180
0
ARC
5
412
100
AcDbEntity
8
0
100
AcDbCircle
10
-1.9558154837642079
20
39.646295252294181
30
0
40
0.032557757652454174
100
AcDbArc
50
122.25660920591521
51
180
0
ARC
5
413
100
AcDbEntity
8
0
100
AcDbCircle
10
-1.9175847732779758
20
38.820136209739481
30
0
40
0.079792270871635027
100
AcDbArc
50
207.48155171973022
51
299.09747381747906
0
ARC
5
414
100
AcDbEntity
8
0
100
AcDbCircle
10
-0.33903249272361574
20
39.645612030840361
30
0
40
0.034005348446140053
100
AcDbArc
50
-71.338739261597439
51
56.073913227235394
0
ELLIPSE
5
415
100
AcDbEntity
8
0
100
AcDbEllipse
10
-0.37130747659245156
20
39.646295252294181
30
0
11
0.066435438907486002
21
-6.556086804240995e-18
31
0.0
40
0.65137357894736836
41
5.419433285859963
42
6.972804929443682
0
ARC
5
416
100
AcDbEntity
8
0
100
AcDbCircle
10
-4.0665231941749029
20
38.809748416991042
30
0
40
0.072649435233381118
100
AcDbArc
50
234.75770808518254
51
338.66326637760858
0
ARC
5
417
100
AcDbEntity
8
0
100
AcDbCircle
10
-4.0314110434659378
20
39.646295252294188
30
0
40
0.032557757652413144
100
AcDbArc
50
0
51
57.743390794171304
0
ARC
5
418
100
AcDbEntity
8
0
100
AcDbCircle
10
-5.648149979203529
20
39.64561793444112
30
0
40
0.034025061496903791
100
AcDbArc
50
123.99319166328695
51
251.27163437106583
0
ELLIPSE
5
419
100
AcDbEntity
8
0
100
AcDbEllipse
10
-5.6159190506377321
20
39.646295252294181
30
0
11
-0.066435438907482186
21
-1.9221448811920888e-15
31
0.0
40
0.65137357894736836
41
5.5935656849152595
42
7.1469373284988942
0
LINE
5
420
100
AcDbEntity
8
0
100
AcDbLine
10
-1.9883732414166617
20
19.542051459245688
30
0
11
-1.9883732414166484
21
30.969984949286168
31
0
0
ARC
5
421
100
AcDbEntity
8
0
100
AcDbCircle
10
-55.600950237826844
20
25.390141998361766
30
0
40
42.49999936171394
100
AcDbArc
50
-25.057615418303019
51
25.057615418303083
0
ARC
5
422
100
AcDbEntity
8
0
100
AcDbCircle
10
-55.600950237826922
20
25.390141998361766
30
0
40
42.499999361714025
100
AcDbArc
50
-25.057615418303019
51
25.057615418303055
0
ARC
5
423
100
AcDbEntity
8
0
100
AcDbCircle
10
-53.600971153994664
20
25.390141998361777
30
0
40
42.500018282092249
100
AcDbArc
50
-25.057603492844535
51
25.057603492844574
0
ARC
5
424
100
AcDbEntity
8
0
100
AcDbCircle
10
-53.600971153995424
20
25.390141998361788
30
0
40
42.500018282092931
100
AcDbArc
50
-25.057603492844127
51
25.057603492844137
0
ARC
5
425
100
AcDbEntity
8
0
100
AcDbCircle
10
-52.831034508487342
20
25.390141998361734
30
0
40
42.468765475343076
100
AcDbArc
50
-25.07731811713143
51
25.077318117131529
0
ARC
5
426
100
AcDbEntity
8
0
100
AcDbCircle
10
-50.865537162007136
20
25.390141998361766
30
0
40
42.500018282092483
100
AcDbArc
50
-25.057603492844382
51
25.057603492844436
0
ARC
5
427
100
AcDbEntity
8
0
100
AcDbCircle
10
-50.865537162007641
20
25.390141998361788
30
0
40
42.500018282092931
100
AcDbArc
50
-25.057603492844077
51
25.057603492844137
0
ARC
5
428
100
AcDbEntity
8
0
100
AcDbCircle
10
-56.519426711099236
20
25.371453992862591
30
0
40
42.471531343083122
100
AcDbArc
50
-25.075706528450318
51
25.075706528450244
0
ARC
5
429
100
AcDbEntity
8
0
100
AcDbCircle
10
-56.519426711099221
20
25.371453992862591
30
0
40
42.471531343083129
100
AcDbArc
50
-25.075706528450368
51
25.075706528450212
0
ARC
5
430
100
AcDbEntity
8
0
100
AcDbCircle
10
19.673803712460511
20
25.324104988307518
30
0
40
42.471531343083122
100
AcDbArc
50
154.92429347154967
51
205.07570652845021
0
ARC
5
431
100
AcDbEntity
8
0
100
AcDbCircle
10
-35.214016424532282
20
25.523828519851822
30
0
40
42.227504826217526
100
AcDbArc
50
-21.753336214159248
51
21.753336214159173
0
ARC
5
432
100
AcDbEntity
8
0
100
AcDbCircle
10
-35.21401642453224
20
25.523828519851833
30
0
40
42.22750482621754
100
AcDbArc
50
-21.753336214159248
51
21.753336214159162
0
ARC
5
433
100
AcDbEntity
8
0
100
AcDbCircle
10
-34.236151425166838
20
25.453436888017489
30
0
40
42.195479660815145
100
AcDbArc
50
-21.773933085424328
51
21.773915168846266
0
ARC
5
434
100
AcDbEntity
8
0
100
AcDbCircle
10
-34.236151425167243
20
25.453436888017489
30
0
40
42.195479660815536
100
AcDbArc
50
-21.773933085424126
51
21.773915168846099
0
ARC
5
435
100
AcDbEntity
8
0
100
AcDbCircle
10
-32.271520191436025
20
25.451218411484231
30
0
40
42.227504826217498
100
AcDbArc
50
-21.753336214159297
51
21.753336214159212
0
ARC
5
436
100
AcDbEntity
8
0
100
AcDbCircle
10
-32.271520191435982
20
25.451218411484163
30
0
40
42.227504826217441
100
AcDbArc
50
-21.753336214159248
51
21.75333621415928
0
ARC
5
437
100
AcDbEntity
8
0
100
AcDbCircle
10
-31.346550618120002
20
25.453436888017489
30
0
40
42.195479660815145
100
AcDbArc
50
-21.773933085424328
51
21.773915168846266
0
ARC
5
438
100
AcDbEntity
8
0
100
AcDbCircle
10
-31.346550618120403
20
25.453436888017489
30
0
40
42.195479660815536
100
AcDbArc
50
-21.773933085424126
51
21.773915168846099
0
ARC
5
439
100
AcDbEntity
8
0
100
AcDbCircle
10
-29.381919384389157
20
25.451218411484206
30
0
40
42.227504826217533
100
AcDbArc
50
-21.753336214159297
51
21.753336214159262
0
ARC
5
440
100
AcDbEntity
8
0
100
AcDbCircle
10
-29.381919384389143
20
25.451218411484163
30
0
40
42.227504826217441
100
AcDbArc
50
-21.753336214159248
51
21.75333621415928
0
ARC
5
441
100
AcDbEntity
8
0
100
AcDbCircle
10
15.864333686876011
20
8.9982346544820029
30
0
40
0.20000000000000384
100
AcDbArc
50
90
51
180
0
ARC
5
442
100
AcDbEntity
8
0
100
AcDbCircle
10
17.16433374113031
20
8.9982346544820029
30
0
40
0.20000000000000384
100
AcDbArc
50
0
51
90
0
ARC
5
443
100
AcDbEntity
8
0
100
AcDbCircle
10
20.081831249413266
20
8.1010826401077853
30
0
40
0.18897637795275746
100
AcDbArc
50
180
51
270.00000038464623
0
ARC
5
444
100
AcDbEntity
8
0
100
AcDbCircle
10
21.403878542774986
20
8.1010826489831622
30
0
40
0.18897637795275185
100
AcDbArc
50
-89.999999615353744
51
0
0
ARC
5
445
100
AcDbEntity
8
0
100
AcDbCircle
10
20.081831245694847
20
6.1706783361825153
30
0
40
0.18897637795275185
100
AcDbArc
50
180
51
270.00000625076115
0
ARC
5
446
100
AcDbEntity
8
0
100
AcDbCircle
10
21.403878564890835
20
6.1706784804130521
30
0
40
0.18897637795275998
100
AcDbArc
50
270.00000625076007
51
359.99999366824517
0
ARC
5
447
100
AcDbEntity
8
0
100
AcDbCircle
10
20.081831245694847
20
4.2898726395042583
30
0
40
0.18897637795275185
100
AcDbArc
50
180
51
270.00182144169798
0
ARC
5
448
100
AcDbEntity
8
0
100
AcDbCircle
10
21.403878523427672
20
4.2899146675917939
30
0
40
0.18897637795275188
100
AcDbArc
50
-89.998178558303096
51
6.2155659652833185e-06
0
ARC
5
449
100
AcDbEntity
8
0
100
AcDbCircle
10
20.101835060945099
20
2.4284225782131359
30
0
40
0.18897637795275746
100
AcDbArc
50
180
51
269.99999999999892
0
ARC
5
450
100
AcDbEntity
8
0
100
AcDbCircle
10
21.423882359293888
20
2.4284225782131359
30
0
40
0.18897637795275607
100
AcDbArc
50
-89.999999999998934
51
0
0
ARC
5
451
100
AcDbEntity
8
0
100
AcDbCircle
10
17.163095054250533
20
3.4389214554352292
30
0
40
0.1889763779527586
100
AcDbArc
50
6.2155659652833185e-06
51
89.999999999997854
0
ARC
5
452
100
AcDbEntity
8
0
100
AcDbCircle
10
15.841047836944897
20
3.4389214554352301
30
0
40
0.18897637795275746
100
AcDbArc
50
90.000000000001094
51
180.00000621556595
0
ARC
5
453
100
AcDbEntity
8
0
100
AcDbCircle
10
15.853310064828747
20
5.1964877820337403
30
0
40
0.18897637795275185
100
AcDbArc
50
90.000000000001094
51
180
0
ARC
5
454
100
AcDbEntity
8
0
100
AcDbCircle
10
17.175357363177557
20
5.1964877820337598
30
0
40
0.18897637795276026
100
AcDbArc
50
0
51
90.000000000001094
0
ARC
5
455
100
AcDbEntity
8
0
100
AcDbCircle
10
15.039333686876009
20
8.3553761612053066
30
0
40
0.10000000000000192
100
AcDbArc
50
90.000000000003055
51
180
0
ARC
5
456
100
AcDbEntity
8
0
100
AcDbCircle
10
15.564333686876004
20
8.5553761612053112
30
0
40
0.10000000000000192
100
AcDbArc
50
270.00000000000205
51
360
0
ARC
5
457
100
AcDbEntity
8
0
100
AcDbCircle
10
16.247577646373589
20
8.5803760281817869
30
0
40
0.10000000000000192
100
AcDbArc
50
90.000000000002032
51
180
0
ARC
5
458
100
AcDbEntity
8
0
100
AcDbCircle
10
16.767554606807614
20
8.5803760281817869
30
0
40
0.099999999999999145
100
AcDbArc
50
-8.5377364625159387e-07
51
90
0
ARC
5
459
100
AcDbEntity
8
0
100
AcDbCircle
10
17.464333741130314
20
8.5553761612053112
30
0
40
0.10000000000000192
100
AcDbArc
50
180
51
269.99999999999795
0
ARC
5
460
100
AcDbEntity
8
0
100
AcDbCircle
10
17.989333741130309
20
8.3553761612053066
30
0
40
0.10000000000000192
100
AcDbArc
50
0
51
89.999999999997954
0
ARC
5
461
100
AcDbEntity
8
0
100
AcDbCircle
10
19.267854870427449
20
8.7549647541630531
30
0
40
0.10000000000000471
100
AcDbArc
50
180
51
269.99999999999591
0
ARC
5
462
100
AcDbEntity
8
0
100
AcDbCircle
10
19.792854868413428
20
8.5549647541630449
30
0
40
0.10000000000000471
100
AcDbArc
50
0
51
89.999999999997954
0
ARC
5
463
100
AcDbEntity
8
0
100
AcDbCircle
10
20.48963083139823
20
8.5299649555805424
30
0
40
0.10000000000000299
100
AcDbArc
50
180.00182144198558
51
269.99999367933509
0
ARC
5
464
100
AcDbEntity
8
0
100
AcDbCircle
10
21.009610893551077
20
8.5299648982182212
30
0
40
0.10000000000000253
100
AcDbArc
50
269.99999367933509
51
359.99999372607061
0
ARC
5
465
100
AcDbEntity
8
0
100
AcDbCircle
10
21.692854917680666
20
8.5549647548343835
30
0
40
0.10000000000000192
100
AcDbArc
50
90.000000384648644
51
180
0
ARC
5
466
100
AcDbEntity
8
0
100
AcDbCircle
10
22.217854921996405
20
8.7549647583588985
30
0
40
0.099999999999999117
100
AcDbArc
50
-89.999999615353389
51
0
0
ARC
5
467
100
AcDbEntity
8
0
100
AcDbCircle
10
22.217854921996402
20
6.8239053167744865
30
0
40
0.099999999999999714
100
AcDbArc
50
-89.999993749240105
51
0
0
ARC
5
468
100
AcDbEntity
8
0
100
AcDbCircle
10
21.692854992841944
20
6.6239052594989056
30
0
40
0.10000000000000531
100
AcDbArc
50
90.00000625076396
51
179.99999372607061
0
ARC
5
469
100
AcDbEntity
8
0
100
AcDbCircle
10
21.009610893551073
20
6.5989053707031777
30
0
40
0.1000000000000025
100
AcDbArc
50
270.00000625076194
51
359.99999372607061
0
ARC
5
470
100
AcDbEntity
8
0
100
AcDbCircle
10
20.489630831398227
20
6.5989053139752549
30
0
40
0.10000000000000017
100
AcDbArc
50
180.00182144158541
51
270.0000062507599
0
ARC
5
471
100
AcDbEntity
8
0
100
AcDbCircle
10
19.792854867742097
20
6.6239053167745041
30
0
40
0.099999999999996328
100
AcDbArc
50
0
51
90.000006250759881
0
ARC
5
472
100
AcDbEntity
8
0
100
AcDbCircle
10
19.26785482361554
20
6.8239052594989156
30
0
40
0.099999999999999728
100
AcDbArc
50
179.99999372607061
51
270.00000625076399
0
ARC
5
473
100
AcDbEntity
8
0
100
AcDbCircle
10
15.039333686875999
20
4.5426056667097914
30
0
40
0.099999999999999117
100
AcDbArc
50
90.000000000002032
51
180
0
ARC
5
474
100
AcDbEntity
8
0
100
AcDbCircle
10
15.564333686876004
20
4.7426056667098004
30
0
40
0.099999999999998423
100
AcDbArc
50
-89.999999999997954
51
0
0
ARC
5
475
100
AcDbEntity
8
0
100
AcDbCircle
10
16.247577646373585
20
4.7676054660465388
30
0
40
0.1000000000000011
100
AcDbArc
50
90.000006250757863
51
180
0
ARC
5
476
100
AcDbEntity
8
0
100
AcDbCircle
10
16.767577578188366
20
4.7676055227766323
30
0
40
0.1000000000000025
100
AcDbArc
50
6.2155659652833185e-06
51
90.000006250757863
0
ARC
5
477
100
AcDbEntity
8
0
100
AcDbCircle
10
17.464333741130336
20
4.7426056667098084
30
0
40
0.10000000000000751
100
AcDbArc
50
180
51
269.99999999999795
0
ARC
5
478
100
AcDbEntity
8
0
100
AcDbCircle
10
17.989333741130309
20
4.5426056667098118
30
0
40
0.10000000000000192
100
AcDbArc
50
0
51
90
0
ARC
5
479
100
AcDbEntity
8
0
100
AcDbCircle
10
19.267854911380297
20
4.9421974387331948
30
0
40
0.1000000000000081
100
AcDbArc
50
180.00000621556595
51
270.00182144169389
0
ARC
5
480
100
AcDbEntity
8
0
100
AcDbCircle
10
19.792854867742097
20
4.7422141284619794
30
0
40
0.099999999999999117
100
AcDbArc
50
0
51
90.001821441695952
0
ARC
5
481
100
AcDbEntity
8
0
100
AcDbCircle
10
20.489610962498823
20
4.7171746821104374
30
0
40
0.099999999999999117
100
AcDbArc
50
180
51
270.00182144169594
0
ARC
5
482
100
AcDbEntity
8
0
100
AcDbCircle
10
21.009634078549066
20
4.7171912137257683
30
0
40
0.10000000000000017
100
AcDbArc
50
-89.998178558304062
51
6.2155659652833185e-06
0
ARC
5
483
100
AcDbEntity
8
0
100
AcDbCircle
10
21.692854852036774
20
4.7422089625630468
30
0
40
0.10000000000000017
100
AcDbArc
50
90.00182144169797
51
180.00000621556595
0
ARC
5
484
100
AcDbEntity
8
0
100
AcDbCircle
10
22.217854921996405
20
4.9422256524975694
30
0
40
0.099999999999997369
100
AcDbArc
50
-89.998178558306108
51
0
0
ARC
5
485
100
AcDbEntity
8
0
100
AcDbCircle
10
15.027071438375499
20
2.7850393401113047
30
0
40
0.09999999999999562
100
AcDbArc
50
89.999999999996945
51
180
0
ARC
5
486
100
AcDbEntity
8
0
100
AcDbCircle
10
15.552071508509018
20
2.9850393401113005
30
0
40
0.099999999999999464
100
AcDbArc
50
-90
51
6.2155659652833185e-06
0
ARC
5
487
100
AcDbEntity
8
0
100
AcDbCircle
10
16.235315329687868
20
3.0100392070877686
30
0
40
0.10000000000000227
100
AcDbArc
50
90.000000000002032
51
180.00000621556595
0
ARC
5
488
100
AcDbEntity
8
0
100
AcDbCircle
10
16.755295528973676
20
3.0100392070877677
30
0
40
0.10000000000000296
100
AcDbArc
50
0.0018214417855169065
51
89.999999999997954
0
ARC
5
489
100
AcDbEntity
8
0
100
AcDbCircle
10
17.452071481720171
20
2.9850393401112987
30
0
40
0.099999999999996911
100
AcDbArc
50
180.00000621556595
51
270.00000000000205
0
ARC
5
490
100
AcDbEntity
8
0
100
AcDbCircle
10
17.977071448991271
20
2.7850393401113029
30
0
40
0.099999999999996911
100
AcDbArc
50
6.2155659652833185e-06
51
90.000000000002032
0
ARC
5
491
100
AcDbEntity
8
0
100
AcDbCircle
10
19.287858682992336
20
3.082304693537063
30
0
40
0.099999999999993525
100
AcDbArc
50
180
51
270.00000000000205
0
ARC
5
492
100
AcDbEntity
8
0
100
AcDbCircle
10
19.812858682992346
20
2.8823046935370717
30
0
40
0.099999999999996328
100
AcDbArc
50
0
51
90.000000000002032
0
ARC
5
493
100
AcDbEntity
8
0
100
AcDbCircle
10
20.509634646648475
20
2.8573048265606005
30
0
40
0.10000000000000296
100
AcDbArc
50
180.00182144178552
51
269.99999999999795
0
ARC
5
494
100
AcDbEntity
8
0
100
AcDbCircle
10
21.029637825613769
20
2.8573048265605938
30
0
40
0.099999999999993525
100
AcDbArc
50
-90.000000000004079
51
0
0
ARC
5
495
100
AcDbEntity
8
0
100
AcDbCircle
10
21.712858737246641
20
2.8823046935370704
30
0
40
0.099999999999993525
100
AcDbArc
50
89.999999999997954
51
180
0
ARC
5
496
100
AcDbEntity
8
0
100
AcDbCircle
10
22.237858737246651
20
3.0823046935370617
30
0
40
0.099999999999995967
100
AcDbArc
50
-90.000000000002032
51
0
0
LINE
5
497
100
AcDbEntity
8
0
100
AcDbLine
10
7.8384792916778459
20
9.8012186818170637
30
0
11
9.8384792916778387
21
9.8012186818170637
31
0
0
LINE
5
498
100
AcDbEntity
8
0
100
AcDbLine
10
4.9488784846310079
20
9.8012186818170637
30
0
11
6.9488784846310008
21
9.8012186818170637
31
0
0
CIRCLE
5
499
100
AcDbEntity
8
0
100
AcDbCircle
10
-14.760086973157136
20
40.294574381200938
30
0
40
0.17184999999998793
0
CIRCLE
5
500
100
AcDbEntity
8
0
100
AcDbCircle
10
-14.760086973157136
20
40.294574381200938
30
0
40
0.1718499999999879
0
CIRCLE
5
501
100
AcDbEntity
8
0
100
AcDbCircle
10
-14.760086973157136
20
40.294574381200938
30
0
40
0.1718499999999879
0
CIRCLE
5
502
100
AcDbEntity
8
0
100
AcDbCircle
10
-14.760086973157136
20
40.294574381200938
30
0
40
0.1718499999999879
0
CIRCLE
5
503
100
AcDbEntity
8
0
100
AcDbCircle
10
-14.760086973157136
20
40.294574381200938
30
0
40
0.1718499999999879
0
CIRCLE
5
504
100
AcDbEntity
8
0
100
AcDbCircle
10
-12.024652981169348
20
40.294574381200938
30
0
40
0.1718499999999879
0
CIRCLE
5
505
100
AcDbEntity
8
0
100
AcDbCircle
10
-12.024652981169348
20
40.294574381200938
30
0
40
0.1718499999999879
0
CIRCLE
5
506
100
AcDbEntity
8
0
100
AcDbCircle
10
-12.024652981169348
20
40.294574381200938
30
0
40
0.1718499999999879
0
CIRCLE
5
507
100
AcDbEntity
8
0
100
AcDbCircle
10
-9.1551765355456602
20
40.42826090269098
30
0
40
0.17185000000001041
0
CIRCLE
5
508
100
AcDbEntity
8
0
100
AcDbCircle
10
-9.1551765355456602
20
40.42826090269098
30
0
40
0.1718500000000103
0
CIRCLE
5
509
100
AcDbEntity
8
0
100
AcDbCircle
10
-9.1551765355456602
20
40.42826090269098
30
0
40
0.1718500000000103
0
CIRCLE
5
510
100
AcDbEntity
8
0
100
AcDbCircle
10
-10.000496947690559
20
42.711894908105286
30
0
40
0.17185000000000994
0
CIRCLE
5
511
100
AcDbEntity
8
0
100
AcDbCircle
10
-10.000496947690559
20
42.711894908105286
30
0
40
0.1718500000000103
0
CIRCLE
5
512
100
AcDbEntity
8
0
100
AcDbCircle
10
-10.000496947690559
20
42.711894908105286
30
0
40
0.1718500000000103
0
CIRCLE
5
513
100
AcDbEntity
8
0
100
AcDbCircle
10
-1.8772896210899599
20
42.711894908105286
30
0
40
0.1718499999999879
0
CIRCLE
5
514
100
AcDbEntity
8
0
100
AcDbCircle
10
-1.8772896210899599
20
42.711894908105286
30
0
40
0.1718499999999879
0
CIRCLE
5
515
100
AcDbEntity
8
0
100
AcDbCircle
10
-1.8772896210899599
20
42.711894908105286
30
0
40
0.1718499999999879
0
CIRCLE
5
516
100
AcDbEntity
8
0
100
AcDbCircle
10
3.2068033390520032
20
40.42826090269098
30
0
40
0.1718499999999879
0
CIRCLE
5
517
100
AcDbEntity
8
0
100
AcDbCircle
10
3.2068033390520032
20
40.42826090269098
30
0
40
0.1718499999999879
0
CIRCLE
5
518
100
AcDbEntity
8
0
100
AcDbCircle
10
6.144988383509463
20
40.342469877541731
30
0
40
0.1718499999999879
0
CIRCLE
5
519
100
AcDbEntity
8
0
100
AcDbCircle
10
6.144988383509463
20
40.342469877541731
30
0
40
0.1718499999999879
0
CIRCLE
5
520
100
AcDbEntity
8
0
100
AcDbCircle
10
9.0345891905563018
20
40.342469877541731
30
0
40
0.1718499999999879
0
CIRCLE
5
521
100
AcDbEntity
8
0
100
AcDbCircle
10
9.0345891905563018
20
40.342469877541731
30
0
40
0.1718499999999879
0
CIRCLE
5
522
100
AcDbEntity
8
0
100
AcDbCircle
10
10.512834082655317
20
42.711800695600374
30
0
40
0.17180288728957155
0
CIRCLE
5
523
100
AcDbEntity
8
0
100
AcDbCircle
10
10.508811453791774
20
42.711894908105286
30
0
40
0.1718500000000103
0
CIRCLE
5
524
100
AcDbEntity
8
0
100
AcDbCircle
10
14.391066733718585
20
40.21215625266467
30
0
40
0.17273319380536412
0
CIRCLE
5
525
100
AcDbEntity
8
0
100
AcDbCircle
10
14.391646453608727
20
40.211489952321855
30
0
40
0.1718499999999879
0
CIRCLE
5
526
100
AcDbEntity
8
0
100
AcDbCircle
10
16.645114193589773
20
40.211489952321855
30
0
40
0.17184999999998798
0
CIRCLE
5
527
100
AcDbEntity
8
0
100
AcDbCircle
10
16.645114193589773
20
40.211489952321855
30
0
40
0.1718499999999879
0
CIRCLE
5
528
100
AcDbEntity
8
0
100
AcDbCircle
10
16.645114193589773
20
40.211489952321855
30
0
40
0.1718499999999879
0
CIRCLE
5
529
100
AcDbEntity
8
0
100
AcDbCircle
10
18.895114193589762
20
40.211489952321855
30
0
40
0.1718499999999879
0
CIRCLE
5
530
100
AcDbEntity
8
0
100
AcDbCircle
10
18.895114193589762
20
40.211489952321855
30
0
40
0.1718499999999879
0
CIRCLE
5
531
100
AcDbEntity
8
0
100
AcDbCircle
10
21.145114193589752
20
40.211489952321855
30
0
40
0.1718499999999884
0
CIRCLE
5
532
100
AcDbEntity
8
0
100
AcDbCircle
10
21.145114193589752
20
40.211489952321855
30
0
40
0.1718499999999879
0
CIRCLE
5
533
100
AcDbEntity
8
0
100
AcDbCircle
10
21.145114193589752
20
40.211489952321855
30
0
40
0.1718499999999879
0
CIRCLE
5
534
100
AcDbEntity
8
0
100
AcDbCircle
10
21.145114193589752
20
40.211489952321855
30
0
40
0.1718499999999879
0
CIRCLE
5
535
100
AcDbEntity
8
0
100
AcDbCircle
10
21.145114193589752
20
40.211489952321855
30
0
40
0.1718499999999879
0
CIRCLE
5
536
100
AcDbEntity
8
0
100
AcDbCircle
10
21.145114193589752
20
40.211489952321855
30
0
40
0.1718499999999879
0
CIRCLE
5
537
100
AcDbEntity
8
0
100
AcDbCircle
10
21.145114193589752
20
40.211489952321855
30
0
40
0.1718499999999879
0
CIRCLE
5
538
100
AcDbEntity
8
0
100
AcDbCircle
10
14.391646453608727
20
32.063935413483854
30
0
40
0.1718499999999879
0
CIRCLE
5
539
100
AcDbEntity
8
0
100
AcDbCircle
10
14.391646453608727
20
32.063935413483854
30
0
40
0.1718499999999879
0
CIRCLE
5
540
100
AcDbEntity
8
0
100
AcDbCircle
10
14.391646453608727
20
32.063935413483854
30
0
40
0.1718499999999879
0
CIRCLE
5
541
100
AcDbEntity
8
0
100
AcDbCircle
10
16.645114193589773
20
32.063935413483854
30
0
40
0.1718499999999879
0
CIRCLE
5
542
100
AcDbEntity
8
0
100
AcDbCircle
10
16.645114193589773
20
32.063935413483854
30
0
40
0.1718499999999879
0
CIRCLE
5
543
100
AcDbEntity
8
0
100
AcDbCircle
10
18.895114193589762
20
32.063935413483854
30
0
40
0.1718499999999879
0
CIRCLE
5
544
100
AcDbEntity
8
0
100
AcDbCircle
10
18.895114193589762
20
32.063935413483854
30
0
40
0.1718499999999879
0
CIRCLE
5
545
100
AcDbEntity
8
0
100
AcDbCircle
10
21.145114193589752
20
32.063935413483854
30
0
40
0.1718499999999879
0
CIRCLE
5
546
100
AcDbEntity
8
0
100
AcDbCircle
10
21.145114193589752
20
32.063935413483854
30
0
40
0.1718499999999879
0
CIRCLE
5
547
100
AcDbEntity
8
0
100
AcDbCircle
10
21.145114193589752
20
19.701955538886196
30
0
40
0.1718500000000103
0
CIRCLE
5
548
100
AcDbEntity
8
0
100
AcDbCircle
10
21.145114193589752
20
19.701955538886196
30
0
40
0.1718500000000103
0
CIRCLE
5
549
100
AcDbEntity
8
0
100
AcDbCircle
10
18.895114193589762
20
19.701955538886196
30
0
40
0.1718500000000103
0
CIRCLE
5
550
100
AcDbEntity
8
0
100
AcDbCircle
10
18.895114193589762
20
19.701955538886196
30
0
40
0.1718500000000103
0
CIRCLE
5
551
100
AcDbEntity
8
0
100
AcDbCircle
10
16.645114193589773
20
19.701955538886196
30
0
40
0.1718500000000103
0
CIRCLE
5
552
100
AcDbEntity
8
0
100
AcDbCircle
10
16.645114193589773
20
19.701955538886196
30
0
40
0.1718500000000103
0
CIRCLE
5
553
100
AcDbEntity
8
0
100
AcDbCircle
10
14.391646453608727
20
19.701955538886196
30
0
40
0.1718500000000103
0
CIRCLE
5
554
100
AcDbEntity
8
0
100
AcDbCircle
10
14.391646453608727
20
19.701955538886196
30
0
40
0.1718500000000103
0
CIRCLE
5
555
100
AcDbEntity
8
0
100
AcDbCircle
10
12.261004992620434
20
8.4539791341774997
30
0
40
0.1718499999999879
0
CIRCLE
5
556
100
AcDbEntity
8
0
100
AcDbCircle
10
12.261004992620434
20
8.4539791341774997
30
0
40
0.1718499999999879
0
CIRCLE
5
557
100
AcDbEntity
8
0
100
AcDbCircle
10
4.1377976660198357
20
8.4539791341774997
30
0
40
0.1718500000000103
0
CIRCLE
5
558
100
AcDbEntity
8
0
100
AcDbCircle
10
4.1377976660198357
20
8.4539791341774997
30
0
40
0.1718500000000103
0
CIRCLE
5
559
100
AcDbEntity
8
0
100
AcDbCircle
10
6.144988383509463
20
10.538037765035453
30
0
40
0.17185000000001005
0
CIRCLE
5
560
100
AcDbEntity
8
0
100
AcDbCircle
10
6.144988383509463
20
10.538037765035453
30
0
40
0.1718500000000103
0
CIRCLE
5
561
100
AcDbEntity
8
0
100
AcDbCircle
10
6.144988383509463
20
10.538037765035453
30
0
40
0.1718500000000103
0
CIRCLE
5
562
100
AcDbEntity
8
0
100
AcDbCircle
10
9.0345891905563018
20
10.538037765035453
30
0
40
0.1718500000000103
0
CIRCLE
5
563
100
AcDbEntity
8
0
100
AcDbCircle
10
9.0345891905563018
20
10.538037765035453
30
0
40
0.1718500000000103
0
CIRCLE
5
564
100
AcDbEntity
8
0
100
AcDbCircle
10
9.0345891905563018
20
10.538037765035453
30
0
40
0.1718500000000103
0
CIRCLE
5
565
100
AcDbEntity
8
0
100
AcDbCircle
10
3.2068033390519806
20
10.623828790184694
30
0
40
0.1718500000000103
0
CIRCLE
5
566
100
AcDbEntity
8
0
100
AcDbCircle
10
3.2068033390519806
20
10.623828790184694
30
0
40
0.1718500000000103
0
CIRCLE
5
567
100
AcDbEntity
8
0
100
AcDbCircle
10
-9.1551765355456602
20
10.623828790184694
30
0
40
0.1718500000000103
0
CIRCLE
5
568
100
AcDbEntity
8
0
100
AcDbCircle
10
-9.1551765355456602
20
10.623828790184694
30
0
40
0.1718500000000103
0
CIRCLE
5
569
100
AcDbEntity
8
0
100
AcDbCircle
10
-9.1551765355456602
20
10.623828790184694
30
0
40
0.1718500000000103
0
CIRCLE
5
570
100
AcDbEntity
8
0
100
AcDbCircle
10
-10.072536340360491
20
8.5874753732996272
30
0
40
0.17185000000001011
0
CIRCLE
5
571
100
AcDbEntity
8
0
100
AcDbCircle
10
-10.072536340360491
20
8.5874753732996272
30
0
40
0.1718500000000103
0
CIRCLE
5
572
100
AcDbEntity
8
0
100
AcDbCircle
10
-10.072536340360491
20
8.5874753732996272
30
0
40
0.1718500000000103
0
CIRCLE
5
573
100
AcDbEntity
8
0
100
AcDbCircle
10
-10.072536340360491
20
8.5874753732996272
30
0
40
0.1718500000000103
0
CIRCLE
5
574
100
AcDbEntity
8
0
100
AcDbCircle
10
-10.072536340360491
20
8.5874753732996272
30
0
40
0.1718500000000103
0
CIRCLE
5
575
100
AcDbEntity
8
0
100
AcDbCircle
10
-12.024652981169327
20
10.490142268694656
30
0
40
0.17185000000000969
0
CIRCLE
5
576
100
AcDbEntity
8
0
100
AcDbCircle
10
-12.024652981169327
20
10.490142268694656
30
0
40
0.1718500000000103
0
CIRCLE
5
577
100
AcDbEntity
8
0
100
AcDbCircle
10
-12.024652981169327
20
10.490142268694656
30
0
40
0.1718500000000103
0
CIRCLE
5
578
100
AcDbEntity
8
0
100
AcDbCircle
10
-14.760086973157113
20
10.490142268694656
30
0
40
0.1718500000000103
0
CIRCLE
5
579
100
AcDbEntity
8
0
100
AcDbCircle
10
-14.760086973157113
20
10.490142268694656
30
0
40
0.1718500000000103
0
CIRCLE
5
580
100
AcDbEntity
8
0
100
AcDbCircle
10
-14.760086973157113
20
10.490142268694656
30
0
40
0.1718500000000103
0
CIRCLE
5
581
100
AcDbEntity
8
0
100
AcDbCircle
10
-11.968717465558457
20
25.392358324947796
30
0
40
0.17185000000000997
0
CIRCLE
5
582
100
AcDbEntity
8
0
100
AcDbCircle
10
-11.968717465558457
20
25.392358324947796
30
0
40
0.1718500000000103
0
CIRCLE
5
583
100
AcDbEntity
8
0
100
AcDbCircle
10
-11.968717465558457
20
25.392358324947796
30
0
40
0.1718500000000103
0
CIRCLE
5
584
100
AcDbEntity
8
0
100
AcDbCircle
10
-9.2332834735706708
20
25.392358324947796
30
0
40
0.17185000000000997
0
CIRCLE
5
585
100
AcDbEntity
8
0
100
AcDbCircle
10
-9.2332834735706708
20
25.392358324947796
30
0
40
0.1718500000000103
0
CIRCLE
5
586
100
AcDbEntity
8
0
100
AcDbCircle
10
-9.2332834735706708
20
25.392358324947796
30
0
40
0.1718500000000103
0
CIRCLE
5
587
100
AcDbEntity
8
0
100
AcDbCircle
10
-6.3635810159936597
20
25.526044846437838
30
0
40
0.17185000000001027
0
CIRCLE
5
588
100
AcDbEntity
8
0
100
AcDbCircle
10
-6.3635810159936597
20
25.526044846437838
30
0
40
0.1718500000000103
0
CIRCLE
5
589
100
AcDbEntity
8
0
100
AcDbCircle
10
-6.3635810159936597
20
25.526044846437838
30
0
40
0.1718500000000103
0
CIRCLE
5
590
100
AcDbEntity
8
0
100
AcDbCircle
10
6.0225200588880856
20
25.526044846437838
30
0
40
0.17184999999998821
0
CIRCLE
5
591
100
AcDbEntity
8
0
100
AcDbCircle
10
6.0225200588880856
20
25.526044846437838
30
0
40
0.1718499999999879
0
CIRCLE
5
592
100
AcDbEntity
8
0
100
AcDbCircle
10
6.0225200588880856
20
25.526044846437838
30
0
40
0.1718499999999879
0
CIRCLE
5
593
100
AcDbEntity
8
0
100
AcDbCircle
10
8.9607051033455676
20
25.440253821288593
30
0
40
0.17184999999998735
0
CIRCLE
5
594
100
AcDbEntity
8
0
100
AcDbCircle
10
8.9607051033455676
20
25.440253821288593
30
0
40
0.1718499999999879
0
CIRCLE
5
595
100
AcDbEntity
8
0
100
AcDbCircle
10
8.9607051033455676
20
25.440253821288593
30
0
40
0.1718499999999879
0
CIRCLE
5
596
100
AcDbEntity
8
0
100
AcDbCircle
10
11.850305910392406
20
25.440253821288593
30
0
40
0.17184999999998735
0
CIRCLE
5
597
100
AcDbEntity
8
0
100
AcDbCircle
10
11.850305910392406
20
25.440253821288593
30
0
40
0.1718499999999879
0
CIRCLE
5
598
100
AcDbEntity
8
0
100
AcDbCircle
10
11.850305910392406
20
25.440253821288593
30
0
40
0.1718499999999879
0
LINE
5
599
100
AcDbEntity
8
0
100
AcDbLine
10
-1.0685831072289365
20
19.08130043866624
30
0
11
2.5176325417239838
21
16.020957789666888
31
0
0
LINE
5
600
100
AcDbEntity
8
0
100
AcDbLine
10
-0.80088604825765441
20
19.181512958977823
30
0
11
2.67991559027364
21
16.211126693942646
31
0
0
LINE
5
601
100
AcDbEntity
8
0
100
AcDbLine
10
2.67991559027364
20
16.211126693942646
30
0
11
-0.80088604825765441
21
19.181512958977823
31
0
0
LINE
5
602
100
AcDbEntity
8
0
100
AcDbLine
10
0.88843109374473539
20
21.508291202281001
30
0
11
4.2766771451816563
21
19.483680996275574
31
0
0
LINE
5
603
100
AcDbEntity
8
0
100
AcDbLine
10
0.77495998303203162
20
21.284863082651647
30
0
11
4.1484417103992683
21
19.26907514065611
31
0
0
LINE
5
604
100
AcDbEntity
8
0
100
AcDbLine
10
4.2766771451816563
20
19.483680996275574
30
0
11
0.88843109374473539
21
21.508291202281001
31
0
0
LINE
5
605
100
AcDbEntity
8
0
100
AcDbLine
10
1.527111028105157
20
23.314208113336203
30
0
11
4.6761987692856293
21
22.356783429419483
31
0
0
LINE
5
606
100
AcDbEntity
8
0
100
AcDbLine
10
1.5793973279001774
20
23.559610506199594
30
0
11
4.7489201182095933
21
22.595972905380847
31
0
0
LINE
5
607
100
AcDbEntity
8
0
100
AcDbLine
10
4.7489201182095933
20
22.595972905380847
30
0
11
1.5793973279001774
21
23.559610506199594
31
0
0
LINE
5
608
100
AcDbEntity
8
0
100
AcDbLine
10
4.8125594469390522
20
25.161718207169397
30
0
11
1.7374367331017395
21
25.161718207169372
31
0
0
LINE
5
609
100
AcDbEntity
8
0
100
AcDbLine
10
1.7374367331017395
20
25.161718207169372
30
0
11
4.8125594469390522
21
25.161718207169397
31
0
0
LINE
5
610
100
AcDbEntity
8
0
100
AcDbLine
10
1.7341320105802491
20
25.411718207169393
30
0
11
4.8125594469390522
21
25.411718207169393
31
0
0
LINE
5
611
100
AcDbEntity
8
0
100
AcDbLine
10
4.8125594469390522
20
25.411718207169393
30
0
11
1.7341320105802491
21
25.411718207169393
31
0
0
LINE
5
612
100
AcDbEntity
8
0
100
AcDbLine
10
1.5470122928164185
20
26.949346736873984
30
0
11
4.7500756184440212
21
27.957141033855372
31
0
0
LINE
5
613
100
AcDbEntity
8
0
100
AcDbLine
10
1.4900929598359238
20
27.193520341656566
30
0
11
4.6750432690512014
21
28.195615658385101
31
0
0
LINE
5
614
100
AcDbEntity
8
0
100
AcDbLine
10
4.6750432690512014
20
28.195615658385101
30
0
11
1.4900929598359238
21
27.193520341656566
31
0
0
LINE
5
615
100
AcDbEntity
8
0
100
AcDbLine
10
0.81718561455091931
20
28.986688758102929
30
0
11
4.2756835370563033
21
31.010172977489372
31
0
0
LINE
5
616
100
AcDbEntity
8
0
100
AcDbLine
10
4.1494353185246435
20
31.225953855505875
30
0
11
0.69966503237490163
21
29.207575966912149
31
0
0
LINE
5
617
100
AcDbEntity
8
0
100
AcDbLine
10
-0.80265123522730242
20
31.1729668831683
30
0
11
2.9118507347216012
21
34.459008698103389
31
0
0
LINE
5
618
100
AcDbEntity
8
0
100
AcDbLine
10
-1.0702652444121841
20
31.270007576927338
30
0
11
2.7462034118055278
21
34.646254430793704
31
0
0
LINE
5
619
100
AcDbEntity
8
0
100
AcDbLine
10
2.7462034118055278
20
34.646254430793704
30
0
11
-1.0702652444121841
21
31.270007576927338
31
0
0
LINE
5
620
100
AcDbEntity
8
0
100
AcDbLine
10
-3.1124406142613079
20
37.64416412863536
30
0
11
-3.1124406142613079
21
39.176384590434232
31
0
0
LINE
5
621
100
AcDbEntity
8
0
100
AcDbLine
10
-3.1124406142613079
20
39.176384590434232
30
0
11
-3.1124406142613079
21
37.64416412863536
31
0
0
LINE
5
622
100
AcDbEntity
8
0
100
AcDbLine
10
-5.4321405215801324
20
38.788480736854929
30
0
11
-3.1124406142613079
21
37.64416412863536
31
0
0
LINE
5
623
100
AcDbEntity
8
0
100
AcDbLine
10
-2.8624406142613115
20
39.176384590434232
30
0
11
-2.8624406142613115
21
37.644164141993251
31
0
0
LINE
5
624
100
AcDbEntity
8
0
100
AcDbLine
10
-0.43214035532888972
20
38.564276635263809
30
0
11
-2.8624406142613115
21
37.365400281408036
31
0
0
LINE
5
625
100
AcDbEntity
8
0
100
AcDbLine
10
-2.8624406142613115
20
37.644164141993251
30
0
11
-0.54274108908456387
21
38.788480733559794
31
0
0
LINE
5
626
100
AcDbEntity
8
0
100
AcDbLine
10
-0.43214035532888972
20
38.564276635263809
30
0
11
-2.8624406142613115
21
37.365400281408036
31
0
0
LINE
5
627
100
AcDbEntity
8
0
100
AcDbLine
10
-2.8624406142613115
20
35.56154116445132
30
0
11
-2.8624406142613115
21
37.365400281408036
31
0
0
LINE
5
628
100
AcDbEntity
8
0
100
AcDbLine
10
-2.8624406142613115
20
35.56154116445132
30
0
11
-0.54206277029809535
21
36.688812739713718
31
0
0
LINE
5
629
100
AcDbEntity
8
0
100
AcDbLine
10
-0.43281867411535824
20
36.463944495069818
30
0
11
-2.8624406142613115
21
35.283600630433334
31
0
0
LINE
5
630
100
AcDbEntity
8
0
100
AcDbLine
10
-2.8624406142613115
20
35.283600630433334
30
0
11
-2.8624406142613115
21
33.554856476084481
31
0
0
LINE
5
631
100
AcDbEntity
8
0
100
AcDbLine
10
-2.8624406142613115
20
33.554856476084481
30
0
11
-0.53832107354548542
21
34.590554685564889
31
0
0
LINE
5
632
100
AcDbEntity
8
0
100
AcDbLine
10
-0.43656037086796817
20
34.362202415178608
30
0
11
-2.8624406142613115
21
33.281156547924041
31
0
0
LINE
5
633
100
AcDbEntity
8
0
100
AcDbLine
10
-0.43656037086796817
20
34.362202415178608
30
0
11
-2.8624406142613115
21
33.281156547924041
31
0
0
LINE
5
634
100
AcDbEntity
8
0
100
AcDbLine
10
-2.8624406142613115
20
14.744700005137455
30
0
11
-2.8624406142613115
21
33.281156547924041
31
0
0
LINE
5
635
100
AcDbEntity
8
0
100
AcDbLine
10
-2.8624406142613115
20
14.744700005137455
30
0
11
-0.53873752509541706
21
15.790374974030371
31
0
0
LINE
5
636
100
AcDbEntity
8
0
100
AcDbLine
10
-2.8624406142613115
20
14.744700005137455
30
0
11
-0.53873752509541706
21
15.790374974030371
31
0
0
LINE
5
637
100
AcDbEntity
8
0
100
AcDbLine
10
-0.38572490656254038
20
15.603730169153947
30
0
11
-2.8857248700989504
21
12.103730220202966
31
0
0
LINE
5
638
100
AcDbEntity
8
0
100
AcDbLine
10
-0.38572490656254038
20
15.603730169153947
30
0
11
-2.8857248700989504
21
12.103730220202966
31
0
0
LINE
5
639
100
AcDbEntity
8
0
100
AcDbLine
10
-3.0891582368179784
20
12.103730221718672
30
0
11
-5.5891582003543885
21
15.603730170669628
31
0
0
LINE
5
640
100
AcDbEntity
8
0
100
AcDbLine
10
-3.0891582368179784
20
12.103730221718672
30
0
11
-5.5891582003543885
21
15.603730170669628
31
0
0
LINE
5
641
100
AcDbEntity
8
0
100
AcDbLine
10
-5.4361456127715222
20
15.790374988445194
30
0
11
-3.1124406142613079
21
14.744699945563738
31
0
0
LINE
5
642
100
AcDbEntity
8
0
100
AcDbLine
10
-5.4361456127715222
20
15.790374988445194
30
0
11
-3.1124406142613079
21
14.744699945563738
31
0
0
LINE
5
643
100
AcDbEntity
8
0
100
AcDbLine
10
-5.1167754646820196
20
15.372510604080428
30
0
11
-3.0387365168607037
21
14.437386107956542
31
0
0
LINE
5
644
100
AcDbEntity
8
0
100
AcDbLine
10
-0.85810779124639602
20
15.372510393948637
30
0
11
-2.9361446796292672
21
14.437386122371349
31
0
0
LINE
5
645
100
AcDbEntity
8
0
100
AcDbLine
10
-2.9361446796292672
20
14.437386122371349
30
0
11
-0.85810779124639602
21
15.372510393948637
31
0
0
LINE
5
646
100
AcDbEntity
8
0
100
AcDbLine
10
-2.9874415529171552
20
12.391443127609591
30
0
11
-5.1167754646820196
21
15.372510604080428
31
0
0
LINE
5
647
100
AcDbEntity
8
0
100
AcDbLine
10
-3.1124406142613079
20
14.744699945563738
30
0
11
-3.1124406142613079
21
33.281156542963451
31
0
0
LINE
5
648
100
AcDbEntity
8
0
100
AcDbLine
10
-3.1124406142613079
20
14.744699945563738
30
0
11
-3.1124406142613079
21
33.281156542963451
31
0
0
LINE
5
649
100
AcDbEntity
8
0
100
AcDbLine
10
-3.1124406142613079
20
33.281156542963451
30
0
11
-5.5383212267415916
21
34.362202412337524
31
0
0
LINE
5
650
100
AcDbEntity
8
0
100
AcDbLine
10
-5.4365605368148531
20
34.590554688405952
30
0
11
-3.1124406142613079
21
33.554856464313332
31
0
0
LINE
5
651
100
AcDbEntity
8
0
100
AcDbLine
10
-5.4365605368148531
20
34.590554688405952
30
0
11
-3.1124406142613079
21
33.554856464313332
31
0
0
LINE
5
652
100
AcDbEntity
8
0
100
AcDbLine
10
-3.1124406142613079
20
33.554856464313332
30
0
11
-3.1124406142613079
21
35.283600625298448
31
0
0
LINE
5
653
100
AcDbEntity
8
0
100
AcDbLine
10
-3.1124406142613079
20
35.283600625298448
30
0
11
-3.1124406142613079
21
33.554856464313332
31
0
0
LINE
5
654
100
AcDbEntity
8
0
100
AcDbLine
10
-3.1124406142613079
20
35.283600625298448
30
0
11
-5.5420629232326037
21
36.463944491845503
31
0
0
LINE
5
655
100
AcDbEntity
8
0
100
AcDbLine
10
-3.1124406142613079
20
35.283600625298448
30
0
11
-5.5420629232326037
21
36.463944491845503
31
0
0
LINE
5
656
100
AcDbEntity
8
0
100
AcDbLine
10
-5.4328188403238347
20
36.68881274293804
30
0
11
-3.1124406142613079
21
35.561541151345729
31
0
0
LINE
5
657
100
AcDbEntity
8
0
100
AcDbLine
10
-5.4328188403238347
20
36.68881274293804
30
0
11
-3.1124406142613079
21
35.561541151345729
31
0
0
LINE
5
658
100
AcDbEntity
8
0
100
AcDbLine
10
-3.1124406142613079
20
35.561541151345729
30
0
11
-3.1124406142613079
21
37.365400276244209
31
0
0
LINE
5
659
100
AcDbEntity
8
0
100
AcDbLine
10
-3.1124406142613079
20
37.365400276244209
30
0
11
-5.5427412419763051
21
38.56427663196866
31
0
0
ARC
5
660
100
AcDbEntity
8
0
100
AcDbCircle
10
-5.4874408817782188
20
38.676378684411794
30
0
40
0.12500000000000802
100
AcDbArc
50
63.742704774670116
51
243.7427047746701
0
ARC
5
661
100
AcDbEntity
8
0
100
AcDbCircle
10
-5.4874408817782188
20
38.676378684411794
30
0
40
0.12500000000000802
100
AcDbArc
50
63.742704774670116
51
243.7427047746701
0
ARC
5
662
100
AcDbEntity
8
0
100
AcDbCircle
10
-2.9874406142613097
20
39.176384590434232
30
0
40
0.1249999999999982
100
AcDbArc
50
0
51
180
0
ARC
5
663
100
AcDbEntity
8
0
100
AcDbCircle
10
-2.9874406142613097
20
39.176384590434232
30
0
40
0.1249999999999982
100
AcDbArc
50
0
51
180
0
ARC
5
664
100
AcDbEntity
8
0
100
AcDbCircle
10
-0.4874407222067268
20
38.676378684411809
30
0
40
0.12500000000001005
100
AcDbArc
50
-63.742701360626732
51
116.25729863937617
0
ARC
5
665
100
AcDbEntity
8
0
100
AcDbCircle
10
-0.4874407222067268
20
38.676378684411802
30
0
40
0.1250000000000093
100
AcDbArc
50
-63.742701360625311
51
116.25729863937472
0
ARC
5
666
100
AcDbEntity
8
0
100
AcDbCircle
10
-0.4874407222067268
20
36.576378617391768
30
0
40
0.12500000000001074
100
AcDbArc
50
-64.088878861957625
51
115.91112113804238
0
ARC
5
667
100
AcDbEntity
8
0
100
AcDbCircle
10
-0.4874407222067268
20
36.576378617391768
30
0
40
0.12500000000001074
100
AcDbArc
50
-64.088878861957625
51
115.91112113804238
0
ARC
5
668
100
AcDbEntity
8
0
100
AcDbCircle
10
-0.4874407222067268
20
34.476378550371756
30
0
40
0.12499999999999084
100
AcDbArc
50
-65.980796333212481
51
114.01920366679019
0
ARC
5
669
100
AcDbEntity
8
0
100
AcDbCircle
10
-0.4874407222067268
20
34.476378550371749
30
0
40
0.12499999999999009
100
AcDbArc
50
-65.98079633321116
51
114.01920366678887
0
ARC
5
670
100
AcDbEntity
8
0
100
AcDbCircle
10
-5.4874408817782188
20
36.576378617391768
30
0
40
0.12499999999999432
100
AcDbArc
50
64.088882244123283
51
244.08888224412149
0
ARC
5
671
100
AcDbEntity
8
0
100
AcDbCircle
10
-5.4874408817782188
20
36.576378617391768
30
0
40
0.12499999999999432
100
AcDbArc
50
64.088882244123283
51
244.08888224412149
0
ARC
5
672
100
AcDbEntity
8
0
100
AcDbCircle
10
-5.4874408817782223
20
34.476378550371734
30
0
40
0.12499999999999754
100
AcDbArc
50
65.980799532505884
51
245.98079953250453
0
ARC
5
673
100
AcDbEntity
8
0
100
AcDbCircle
10
-5.4874408817782223
20
34.476378550371734
30
0
40
0.12499999999999697
100
AcDbArc
50
65.980799532505884
51
245.98079953250453
0
ARC
5
674
100
AcDbEntity
8
0
100
AcDbCircle
10
-2.9874406142613106
20
14.551376153032926
30
0
40
0.12500000000001049
100
AcDbArc
50
245.77209487665067
51
294.2279212241923
0
ARC
5
675
100
AcDbEntity
8
0
100
AcDbCircle
10
-2.9874406142613097
20
14.551376153032841
30
0
40
0.12499999999992394
100
AcDbArc
50
245.77209487663421
51
294.22792122420367
0
ARC
5
676
100
AcDbEntity
8
0
100
AcDbCircle
10
-5.48744151537091
20
15.676384943368816
30
0
40
0.12500000000000056
100
AcDbArc
50
65.772094876651565
51
215.53767693820092
0
ARC
5
677
100
AcDbEntity
8
0
100
AcDbCircle
10
-5.4874415153709082
20
15.67638494336882
30
0
40
0.12499999999999761
100
AcDbArc
50
65.772094876652005
51
215.53767693820231
0
ARC
5
678
100
AcDbEntity
8
0
100
AcDbCircle
10
-2.9874415529171405
20
12.176384995933555
30
0
40
0.12499999999999377
100
AcDbArc
50
215.53767779197369
51
324.46232135424697
0
ARC
5
679
100
AcDbEntity
8
0
100
AcDbCircle
10
-2.9874415529171414
20
12.176384995933553
30
0
40
0.12499999999999241
100
AcDbArc
50
215.53767779197329
51
324.46232135424736
0
ARC
5
680
100
AcDbEntity
8
0
100
AcDbCircle
10
-0.48744159046335789
20
15.676384943368831
30
0
40
0.12499999999998089
100
AcDbArc
50
-35.537677791979824
51
114.22792122420596
0
ARC
5
681
100
AcDbEntity
8
0
100
AcDbCircle
10
-0.48744159046335772
20
15.676384943368834
30
0
40
0.12499999999998149
100
AcDbArc
50
-35.537677791981253
51
114.22792122420616
0
ARC
5
682
100
AcDbEntity
8
0
100
AcDbCircle
10
2.5987740659988128
20
16.116042241804767
30
0
40
0.12500000000001127
100
AcDbArc
50
-130.47620494702025
51
49.523795052980375
0
ARC
5
683
100
AcDbEntity
8
0
100
AcDbCircle
10
2.5987740659988177
20
16.116042241804774
30
0
40
0.12500000000001316
100
AcDbArc
50
-130.47620494701607
51
49.523795052979906
0
ARC
5
684
100
AcDbEntity
8
0
100
AcDbCircle
10
-0.98744158295427542
20
19.176384890804083
30
0
40
0.12499999999988005
100
AcDbArc
50
133.14436319906827
51
229.52379505302778
0
ARC
5
685
100
AcDbEntity
8
0
100
AcDbCircle
10
-0.98744158295427331
20
19.176384890804083
30
0
40
0.12499999999988094
100
AcDbArc
50
133.14436319906881
51
229.52379505302659
0
ARC
5
686
100
AcDbEntity
8
0
100
AcDbCircle
10
-6.6108624160899616
20
25.176384800693118
30
0
40
8.098312032582422
100
AcDbArc
50
-46.855636800876937
51
46.855636800877136
0
ARC
5
687
100
AcDbEntity
8
0
100
AcDbCircle
10
-6.6108624160899643
20
25.176384800693118
30
0
40
8.0983120325824238
100
AcDbArc
50
-46.855636800876937
51
46.855636800877129
0
ARC
5
688
100
AcDbEntity
8
0
100
AcDbCircle
10
-0.98744158295410167
20
31.17638471058218
30
0
40
0.12500000000002542
100
AcDbArc
50
131.49764713918739
51
226.85563680087043
0
ARC
5
689
100
AcDbEntity
8
0
100
AcDbCircle
10
-0.98744158295409434
20
31.17638471058218
30
0
40
0.12500000000002989
100
AcDbArc
50
131.49764713918984
51
226.85563680086577
0
ARC
5
690
100
AcDbEntity
8
0
100
AcDbCircle
10
2.829027073263565
20
34.552631564448546
30
0
40
0.12499999999999881
100
AcDbArc
50
-48.502352860828495
51
131.49764713917185
0
ARC
5
691
100
AcDbEntity
8
0
100
AcDbCircle
10
2.8290270732635645
20
34.552631564448546
30
0
40
0.12499999999999763
100
AcDbArc
50
-48.502352860827123
51
131.49764713917304
0
ARC
5
692
100
AcDbEntity
8
0
100
AcDbCircle
10
-6.6108624160894163
20
25.176384800693508
30
0
40
8.3483120325817382
100
AcDbArc
50
28.873341707395788
51
45.914199976243751
0
ARC
5
693
100
AcDbEntity
8
0
100
AcDbCircle
10
-6.6108624160896285
20
25.176384800693338
30
0
40
8.3483120325820295
100
AcDbArc
50
28.873341707396108
51
45.914199976243516
0
ARC
5
694
100
AcDbEntity
8
0
100
AcDbCircle
10
4.212559427790473
20
31.118063416497623
30
0
40
0.12499999999998922
100
AcDbArc
50
-59.669120666888205
51
120.33087933311145
0
ARC
5
695
100
AcDbEntity
8
0
100
AcDbCircle
10
4.212559427790473
20
31.118063416497623
30
0
40
0.12499999999998922
100
AcDbArc
50
-59.669120666888205
51
120.33087933311145
0
ARC
5
696
100
AcDbEntity
8
0
100
AcDbCircle
10
-6.6108624160902947
20
25.176384800693071
30
0
40
8.3483120325826281
100
AcDbArc
50
13.982289718155476
51
27.156085191122752
0
ARC
5
697
100
AcDbEntity
8
0
100
AcDbCircle
10
-6.6108624160901162
20
25.176384800693157
30
0
40
8.3483120325825588
100
AcDbArc
50
13.982289718155238
51
27.156085191122777
0
ARC
5
698
100
AcDbEntity
8
0
100
AcDbCircle
10
4.7125594437476188
20
28.076378346120244
30
0
40
0.12499999999999824
100
AcDbArc
50
-72.53462479514161
51
107.46537520486697
0
ARC
5
699
100
AcDbEntity
8
0
100
AcDbCircle
10
4.7125594437476224
20
28.076378346120237
30
0
40
0.12499999999999793
100
AcDbArc
50
-72.53462479514252
51
107.46537520486775
0
ARC
5
700
100
AcDbEntity
8
0
100
AcDbCircle
10
-6.610862416090268
20
25.17638480069304
30
0
40
8.348312032582994
100
AcDbArc
50
1.6153441944565425
51
12.261493655177935
0
ARC
5
701
100
AcDbEntity
8
0
100
AcDbCircle
10
-6.6108624160904288
20
25.176384800693047
30
0
40
8.3483120325828999
100
AcDbArc
50
1.6153441944565425
51
12.261493655177663
0
ARC
5
702
100
AcDbEntity
8
0
100
AcDbCircle
10
4.8125594469390531
20
25.286718207169397
30
0
40
0.125000000000001
100
AcDbArc
50
-90.000000000000398
51
90.000000000000398
0
ARC
5
703
100
AcDbEntity
8
0
100
AcDbCircle
10
4.8125594469390522
20
25.286718207169397
30
0
40
0.1249999999999982
100
AcDbArc
50
-90
51
90
0
ARC
5
704
100
AcDbEntity
8
0
100
AcDbCircle
10
-6.6108624160876452
20
25.176384800692883
30
0
40
8.3483120325801838
100
AcDbArc
50
348.83326372502552
51
359.89934080833387
0
ARC
5
705
100
AcDbEntity
8
0
100
AcDbCircle
10
-6.6108624160885272
20
25.176384800692983
30
0
40
8.3483120325809921
100
AcDbArc
50
348.83326372502597
51
359.89934080833024
0
ARC
5
706
100
AcDbEntity
8
0
100
AcDbCircle
10
4.7125594437476224
20
22.476378167400163
30
0
40
0.12499999999999221
100
AcDbArc
50
-106.91097080201155
51
73.089029197998656
0
ARC
5
707
100
AcDbEntity
8
0
100
AcDbCircle
10
4.7125594437476224
20
22.476378167400163
30
0
40
0.12499999999999413
100
AcDbArc
50
-106.91097080201197
51
73.089029197998272
0
ARC
5
708
100
AcDbEntity
8
0
100
AcDbCircle
10
-6.6108624160900007
20
25.176384800693061
30
0
40
8.3483120325826707
100
AcDbArc
50
333.93557695882356
51
347.11115910930823
0
ARC
5
709
100
AcDbEntity
8
0
100
AcDbCircle
10
-6.6108624160902805
20
25.176384800693167
30
0
40
8.3483120325827489
100
AcDbArc
50
333.93557695882379
51
347.11115910930795
0
ARC
5
710
100
AcDbEntity
8
0
100
AcDbCircle
10
4.212559427790457
20
19.376378068465844
30
0
40
0.12499999999999351
100
AcDbArc
50
-120.85997693824991
51
59.14002306174509
0
ARC
5
711
100
AcDbEntity
8
0
100
AcDbCircle
10
4.212559427790457
20
19.376378068465844
30
0
40
0.12499999999999131
100
AcDbArc
50
-120.85997693824956
51
59.140023061745779
0
ARC
5
712
100
AcDbEntity
8
0
100
AcDbCircle
10
-6.6108624160903116
20
25.176384800693313
30
0
40
8.3483120325829177
100
AcDbArc
50
314.10266833069051
51
332.21566734258931
0
ARC
5
713
100
AcDbEntity
8
0
100
AcDbCircle
10
-6.6108624160903453
20
25.176384800693345
30
0
40
8.348312032582875
100
AcDbArc
50
314.10266833069051
51
332.21566734258931
0
ARC
5
714
100
AcDbEntity
8
0
100
AcDbCircle
10
2.5987740659988119
20
16.116042241804767
30
0
40
0.12500000000001082
100
AcDbArc
50
-130.47620494701997
51
49.523795052980063
0
ARC
5
715
100
AcDbEntity
8
0
100
AcDbCircle
10
-4.7306268287664439
20
45.217173312701526
30
0
40
42.471531343083129
100
AcDbArc
50
244.92429347154973
51
295.07570652845027
0
ARC
5
716
100
AcDbEntity
8
0
100
AcDbCircle
10
-4.7306268287664386
20
45.217173312701462
30
0
40
42.471531343083122
100
AcDbArc
50
244.92429347154962
51
295.07570652845027
0
ARC
5
717
100
AcDbEntity
8
0
100
AcDbCircle
10
-49.907804129680962
20
25.523828519851822
30
0
40
42.407810937037468
100
AcDbArc
50
-21.656163835434153
51
21.656163835434132
0
LINE
5
718
100
AcDbEntity
8
0
100
AcDbLine
10
-0.85810779124639602
20
15.372510393948637
30
0
11
-2.9874415529171552
21
12.391443127609591
31
0
0
ENDSEC
0
SECTION
2
OBJECTS
0
DICTIONARY
5
C
100
AcDbDictionary
3
ACAD_GROUP
350
D
3
ACAD_MLINESTYLE
350
17
0
DICTIONARY
5
D
100
AcDbDictionary
0
DICTIONARY
5
1A
330
C
100
AcDbDictionary
0
DICTIONARY
5
17
100
AcDbDictionary
0
ENDSEC
0
EOF
